<svg width="51" height="50" viewBox="0 0 51 50" fill="none" xmlns="http://www.w3.org/2000/svg">
<path d="M25.1558 30.5625L7.14738 12.6875L4.19141 15.625L22.0111 33.3333H8.38428V37.5H41.9273V33.3333H28.3004L39.0971 22.6042C39.8165 22.8637 40.5844 22.9634 41.3469 22.8964C42.1093 22.8294 42.8477 22.5973 43.5101 22.2164C44.1726 21.8354 44.7431 21.3149 45.1814 20.6914C45.6198 20.0679 45.9155 19.3566 46.0476 18.6074C46.1797 17.8582 46.1451 17.0894 45.9462 16.3549C45.7473 15.6205 45.389 14.9382 44.8964 14.3561C44.4037 13.774 43.7888 13.3061 43.0948 12.9855C42.4007 12.6648 41.6444 12.4991 40.879 12.5C39.489 12.5 38.1559 13.0487 37.173 14.0255C36.1901 15.0022 35.6379 16.327 35.6379 17.7083C35.6379 18.4375 35.7847 19.1042 36.0572 19.7292L25.1558 30.5625Z" fill="#D7D8E0"/>
</svg>
