<svg width="50" height="50" viewBox="0 0 50 50" fill="none" xmlns="http://www.w3.org/2000/svg">
<path d="M8 41.6667V41.1667H7.5H5C2.57439 41.1667 0.5 38.9414 0.5 36.1111V19.4444C0.5 16.6142 2.57439 14.3889 5 14.3889H14V31.1111V31.1139V31.6139H14.5L31.9988 31.6139C31.999 31.6139 31.9993 31.6139 31.9996 31.6139C31.9997 31.6139 31.9999 31.6139 32 31.6139V36.1111C32 38.9414 29.9256 41.1667 27.5 41.1667H15H14.7773L14.6284 41.3322L8 48.697V41.6667ZM35.3716 27.4433L35.2227 27.2778H35H18V5.55556C18 2.72529 20.0744 0.5 22.5 0.5H45C47.4256 0.5 49.5 2.72529 49.5 5.55556V22.2222C49.5 25.0551 47.4258 27.2778 45 27.2778H42.5H42V27.7778V34.8081L35.3716 27.4433Z" fill="black" stroke="black"/>
</svg>
