<svg width="60" height="60" viewBox="0 0 60 60" fill="none" xmlns="http://www.w3.org/2000/svg">
<path d="M16.875 13.125C10.6875 13.125 5.625 18.1875 5.625 24.375C5.625 28.095 7.45687 31.4062 10.2544 33.4575C5.31 35.91 1.875 40.995 1.875 46.875H5.625C5.625 40.6425 10.6425 35.625 16.875 35.625C23.1075 35.625 28.125 40.6425 28.125 46.875H31.875C31.875 40.6425 36.8925 35.625 43.125 35.625C49.3575 35.625 54.375 40.6425 54.375 46.875H58.125C58.125 40.9931 54.69 35.91 49.7456 33.4575C51.1772 32.4144 52.3425 31.0482 53.1469 29.4701C53.9513 27.8919 54.372 26.1463 54.375 24.375C54.375 18.1875 49.3125 13.125 43.125 13.125C36.9375 13.125 31.875 18.1875 31.875 24.375C31.875 28.095 33.7069 31.4062 36.5044 33.4575C33.7649 34.8044 31.4973 36.9491 30 39.6094C28.5027 36.9491 26.2351 34.8044 23.4956 33.4575C24.9272 32.4144 26.0925 31.0482 26.8969 29.4701C27.7013 27.8919 28.122 26.1463 28.125 24.375C28.125 18.1875 23.0625 13.125 16.875 13.125ZM16.875 16.875C21.0431 16.875 24.375 20.2069 24.375 24.375C24.375 28.5431 21.0431 31.875 16.875 31.875C12.7069 31.875 9.375 28.5431 9.375 24.375C9.375 20.2069 12.7069 16.875 16.875 16.875ZM43.125 16.875C47.2931 16.875 50.625 20.2069 50.625 24.375C50.625 28.5431 47.2931 31.875 43.125 31.875C38.9569 31.875 35.625 28.5431 35.625 24.375C35.625 20.2069 38.9569 16.875 43.125 16.875Z" fill="black"/>
</svg>
