<svg width="50" height="50" viewBox="0 0 50 50" fill="none" xmlns="http://www.w3.org/2000/svg">
<path d="M45.874 13.501C47.2087 14.8356 48.2259 16.3493 48.9258 18.042C49.6257 19.7347 49.9837 21.5332 50 23.4375C50 24.0072 49.9837 24.6908 49.9512 25.4883C49.9186 26.2858 49.8535 27.1484 49.7559 28.0762C49.6582 29.0039 49.5036 29.9561 49.292 30.9326C49.0804 31.9092 48.8118 32.8776 48.4863 33.8379C47.998 35.2376 47.4284 36.377 46.7773 37.2559C46.1263 38.1348 45.4508 38.8265 44.751 39.3311C44.0511 39.8356 43.3431 40.1774 42.627 40.3564C41.9108 40.5355 41.2435 40.625 40.625 40.625C40.0879 40.625 39.5996 40.5355 39.1602 40.3564C38.7207 40.1774 38.2975 39.9333 37.8906 39.624C37.4837 39.3148 37.1094 38.9811 36.7676 38.623C36.4258 38.265 36.0758 37.8743 35.7178 37.4512C35.376 37.0605 35.0423 36.6862 34.7168 36.3281C34.3913 35.9701 34.0413 35.6527 33.667 35.376C33.2926 35.0993 32.9183 34.8633 32.5439 34.668C32.1696 34.4727 31.7301 34.375 31.2256 34.375H18.7744C18.3024 34.3913 17.8711 34.4889 17.4805 34.668C17.0898 34.847 16.7074 35.0749 16.333 35.3516C15.9587 35.6283 15.6169 35.9538 15.3076 36.3281C14.9984 36.7025 14.6566 37.0768 14.2822 37.4512C13.9404 37.8418 13.5986 38.2243 13.2568 38.5986C12.915 38.973 12.5407 39.3148 12.1338 39.624C11.7269 39.9333 11.3037 40.1693 10.8643 40.332C10.4248 40.4948 9.92839 40.5924 9.375 40.625C8.75651 40.625 8.08919 40.5355 7.37305 40.3564C6.6569 40.1774 5.94889 39.8438 5.24902 39.3555C4.54915 38.8672 3.8737 38.1755 3.22266 37.2803C2.57161 36.3851 2.00195 35.2376 1.51367 33.8379C1.18815 32.8939 0.927734 31.9336 0.732422 30.957C0.537109 29.9805 0.382487 29.0202 0.268555 28.0762C0.154622 27.1322 0.0813802 26.2695 0.0488281 25.4883C0.016276 24.707 0 24.0234 0 23.4375C0 21.5495 0.349935 19.7591 1.0498 18.0664C1.74967 16.3737 2.77507 14.8519 4.12598 13.501C5.44434 12.1663 6.95801 11.1491 8.66699 10.4492C10.376 9.74935 12.1745 9.39128 14.0625 9.375H35.9375C37.8255 9.375 39.6159 9.72493 41.3086 10.4248C43.0013 11.1247 44.5231 12.1501 45.874 13.501ZM45.5322 32.8125C45.8415 31.9499 46.0856 31.0547 46.2646 30.127C46.4437 29.1992 46.5739 28.3122 46.6553 27.4658C46.7367 26.6195 46.7936 25.8382 46.8262 25.1221C46.8587 24.4059 46.875 23.8444 46.875 23.4375C46.875 21.9238 46.5902 20.5078 46.0205 19.1895C45.4508 17.8711 44.6696 16.7155 43.6768 15.7227C42.6839 14.7298 41.5283 13.9486 40.21 13.3789C38.8916 12.8092 37.4674 12.5163 35.9375 12.5H14.0625C12.5488 12.5 11.1328 12.7848 9.81445 13.3545C8.49609 13.9242 7.34049 14.7054 6.34766 15.6982C5.35482 16.6911 4.57357 17.8467 4.00391 19.165C3.43424 20.4834 3.14128 21.9076 3.125 23.4375C3.125 23.8607 3.13314 24.4222 3.14941 25.1221C3.16569 25.8219 3.22266 26.5951 3.32031 27.4414C3.41797 28.2878 3.55632 29.1829 3.73535 30.127C3.91439 31.071 4.15853 31.9661 4.46777 32.8125C4.87467 33.9844 5.32227 34.8877 5.81055 35.5225C6.29883 36.1572 6.77083 36.6211 7.22656 36.9141C7.68229 37.207 8.10547 37.3779 8.49609 37.4268C8.88672 37.4756 9.17969 37.5 9.375 37.5C9.73307 37.5 10.1237 37.2884 10.5469 36.8652C10.9701 36.4421 11.4258 35.9538 11.9141 35.4004C12.3047 34.9447 12.7197 34.4808 13.1592 34.0088C13.5986 33.5368 14.0951 33.0973 14.6484 32.6904C15.2018 32.2835 15.8122 31.9499 16.4795 31.6895C17.1468 31.429 17.8874 31.2826 18.7012 31.25H31.2988C32.1126 31.2826 32.8532 31.429 33.5205 31.6895C34.1878 31.9499 34.79 32.2754 35.3271 32.666C35.8643 33.0566 36.3607 33.4961 36.8164 33.9844C37.2721 34.4727 37.6953 34.9447 38.0859 35.4004C38.5579 35.9375 39.0055 36.4176 39.4287 36.8408C39.8519 37.264 40.2507 37.4837 40.625 37.5C40.8203 37.5 41.1051 37.4756 41.4795 37.4268C41.8538 37.3779 42.277 37.207 42.749 36.9141C43.221 36.6211 43.7012 36.1572 44.1895 35.5225C44.6777 34.8877 45.1253 33.9844 45.5322 32.8125ZM12.5 21.875H15.625V25H12.5V28.125H9.375V25H6.25V21.875H9.375V18.75H12.5V21.875ZM40.625 25C41.0645 25 41.4714 25.0814 41.8457 25.2441C42.2201 25.4069 42.5456 25.6266 42.8223 25.9033C43.099 26.18 43.3268 26.5137 43.5059 26.9043C43.6849 27.2949 43.7663 27.7018 43.75 28.125C43.75 28.5645 43.6686 28.9714 43.5059 29.3457C43.3431 29.7201 43.1234 30.0456 42.8467 30.3223C42.57 30.599 42.2363 30.8268 41.8457 31.0059C41.4551 31.1849 41.0482 31.2663 40.625 31.25C40.1855 31.25 39.7786 31.1686 39.4043 31.0059C39.0299 30.8431 38.7044 30.6234 38.4277 30.3467C38.151 30.07 37.9232 29.7363 37.7441 29.3457C37.5651 28.9551 37.4837 28.5482 37.5 28.125C37.5 27.6855 37.5814 27.2786 37.7441 26.9043C37.9069 26.5299 38.1266 26.2044 38.4033 25.9277C38.68 25.651 39.0137 25.4232 39.4043 25.2441C39.7949 25.0651 40.2018 24.9837 40.625 25ZM34.375 18.75C34.8145 18.75 35.2214 18.8314 35.5957 18.9941C35.9701 19.1569 36.2956 19.3766 36.5723 19.6533C36.849 19.93 37.0768 20.2637 37.2559 20.6543C37.4349 21.0449 37.5163 21.4518 37.5 21.875C37.5 22.3145 37.4186 22.7214 37.2559 23.0957C37.0931 23.4701 36.8734 23.7956 36.5967 24.0723C36.32 24.349 35.9863 24.5768 35.5957 24.7559C35.2051 24.9349 34.7982 25.0163 34.375 25C33.9355 25 33.5286 24.9186 33.1543 24.7559C32.7799 24.5931 32.4544 24.3734 32.1777 24.0967C31.901 23.82 31.6732 23.4863 31.4941 23.0957C31.3151 22.7051 31.2337 22.2982 31.25 21.875C31.25 21.4355 31.3314 21.0286 31.4941 20.6543C31.6569 20.2799 31.8766 19.9544 32.1533 19.6777C32.43 19.401 32.7637 19.1732 33.1543 18.9941C33.5449 18.8151 33.9518 18.7337 34.375 18.75Z" fill="#1F2021"/>
</svg>
