<svg width="50" height="50" viewBox="0 0 50 50" fill="none" xmlns="http://www.w3.org/2000/svg">
<path d="M8.33203 37.5003C8.33203 35.2902 9.21 33.1706 10.7728 31.6078C12.3356 30.045 14.4552 29.167 16.6654 29.167H33.332C35.5422 29.167 37.6618 30.045 39.2246 31.6078C40.7874 33.1706 41.6654 35.2902 41.6654 37.5003C41.6654 38.6054 41.2264 39.6652 40.445 40.4466C39.6636 41.228 38.6038 41.667 37.4987 41.667H12.4987C11.3936 41.667 10.3338 41.228 9.55242 40.4466C8.77102 39.6652 8.33203 38.6054 8.33203 37.5003Z" stroke="#1F2021" stroke-width="5.20833" stroke-linejoin="round"/>
<path d="M25 20.8335C28.4518 20.8335 31.25 18.0353 31.25 14.5835C31.25 11.1317 28.4518 8.3335 25 8.3335C21.5482 8.3335 18.75 11.1317 18.75 14.5835C18.75 18.0353 21.5482 20.8335 25 20.8335Z" stroke="#1F2021" stroke-width="5.20833"/>
</svg>
