<svg width="351" height="41" viewBox="0 0 351 41" fill="none" xmlns="http://www.w3.org/2000/svg">
<path d="M26.9279 0.749999C31.4946 0.749999 34.7946 1.85 36.8279 4.05C38.8946 6.25 39.4946 9.38333 38.6279 13.45C38.1946 15.4833 37.4779 17.3167 36.4779 18.95C35.5113 20.55 34.2779 21.9167 32.7779 23.05C31.3113 24.1833 29.6113 25.0667 27.6779 25.7C25.7779 26.3 23.6779 26.6 21.3779 26.6H11.9779L9.17793 40H0.427927L8.72793 0.749999H26.9279ZM22.4279 19.85C24.4279 19.85 26.0779 19.2833 27.3779 18.15C28.6779 16.9833 29.5113 15.5 29.8779 13.7C30.2779 11.9 30.0779 10.4167 29.2779 9.25C28.4779 8.08333 27.0779 7.5 25.0779 7.5H16.0779L13.4279 19.85H22.4279ZM73.0756 20.35C73.5422 18.1833 73.6589 16.25 73.4256 14.55C73.2256 12.85 72.7256 11.4333 71.9256 10.3C71.1589 9.13333 70.1256 8.25 68.8256 7.65C67.5589 7.05 66.0756 6.75 64.3756 6.75C62.6756 6.75 61.0422 7.05 59.4756 7.65C57.9422 8.25 56.5422 9.13333 55.2756 10.3C54.0089 11.4333 52.9089 12.85 51.9756 14.55C51.0422 16.25 50.3422 18.1833 49.8756 20.35C49.4089 22.5167 49.2756 24.45 49.4756 26.15C49.7089 27.85 50.2089 29.2833 50.9756 30.45C51.7756 31.6167 52.8089 32.5 54.0756 33.1C55.3756 33.7 56.8756 34 58.5756 34C62.1756 34 65.2589 32.8167 67.8256 30.45C70.3922 28.0833 72.1422 24.7167 73.0756 20.35ZM81.8256 20.35C81.1589 23.55 80.1089 26.4167 78.6756 28.95C77.2756 31.4833 75.5256 33.6333 73.4256 35.4C71.3589 37.1333 68.9589 38.4667 66.2256 39.4C63.4922 40.3 60.4756 40.75 57.1756 40.75C54.2422 40.75 51.6256 40.2667 49.3256 39.3C47.0589 38.3 45.2089 36.9167 43.7756 35.15C42.3422 33.35 41.3756 31.2 40.8756 28.7C40.3756 26.2 40.4589 23.4167 41.1256 20.35C41.8256 17.15 42.8756 14.3 44.2756 11.8C45.7089 9.26666 47.4589 7.13333 49.5256 5.4C51.6256 3.63333 54.0422 2.3 56.7756 1.4C59.5089 0.466666 62.5256 -5.96046e-07 65.8256 -5.96046e-07C68.8922 -5.96046e-07 71.5589 0.483332 73.8256 1.45C76.1256 2.38333 77.9756 3.75 79.3756 5.55C80.7756 7.31667 81.6922 9.45 82.1256 11.95C82.5589 14.45 82.4589 17.25 81.8256 20.35ZM111.067 26.35L116.467 0.749999H125.167L116.867 40H110.117L98.367 16.85L97.717 14.4L92.317 40H83.617L91.917 0.749999H98.667L110.417 23.9L111.067 26.35ZM167.001 20.95C166.368 24.0167 165.368 26.7667 164.001 29.2C162.668 31.6333 160.985 33.7167 158.951 35.45C156.951 37.15 154.585 38.4667 151.851 39.4C149.151 40.3 146.135 40.75 142.801 40.75C139.801 40.75 137.151 40.2833 134.851 39.35C132.585 38.4167 130.751 37.0833 129.351 35.35C127.951 33.6167 127.018 31.4833 126.551 28.95C126.118 26.4167 126.251 23.55 126.951 20.35C127.651 17.15 128.751 14.2833 130.251 11.75C131.751 9.21667 133.568 7.08333 135.701 5.35C137.868 3.61666 140.285 2.3 142.951 1.4C145.618 0.466666 148.468 -5.96046e-07 151.501 -5.96046e-07C154.035 -5.96046e-07 156.318 0.316666 158.351 0.949999C160.385 1.58333 162.118 2.51667 163.551 3.75C164.985 4.95 166.085 6.43333 166.851 8.2C167.618 9.96667 168.001 11.9667 168.001 14.2H159.151C158.951 11.7667 158.051 9.91666 156.451 8.65C154.885 7.38333 152.751 6.75 150.051 6.75C148.385 6.75 146.785 7.06667 145.251 7.7C143.751 8.3 142.368 9.18333 141.101 10.35C139.835 11.4833 138.735 12.9 137.801 14.6C136.868 16.3 136.168 18.2167 135.701 20.35C135.235 22.5167 135.101 24.45 135.301 26.15C135.501 27.8167 135.968 29.2333 136.701 30.4C137.468 31.5667 138.485 32.4667 139.751 33.1C141.051 33.7 142.551 34 144.251 34C146.118 34 147.785 33.7667 149.251 33.3C150.718 32.8333 151.985 32.1833 153.051 31.35C154.151 30.4833 155.068 29.4667 155.801 28.3C156.535 27.1333 157.118 25.8667 157.551 24.5H145.251L146.651 18H167.651L167.001 20.95ZM225.581 20.95C224.948 24.0167 223.948 26.7667 222.581 29.2C221.248 31.6333 219.564 33.7167 217.531 35.45C215.531 37.15 213.164 38.4667 210.431 39.4C207.731 40.3 204.714 40.75 201.381 40.75C198.381 40.75 195.731 40.2833 193.431 39.35C191.164 38.4167 189.331 37.0833 187.931 35.35C186.531 33.6167 185.598 31.4833 185.131 28.95C184.698 26.4167 184.831 23.55 185.531 20.35C186.231 17.15 187.331 14.2833 188.831 11.75C190.331 9.21667 192.148 7.08333 194.281 5.35C196.448 3.61666 198.864 2.3 201.531 1.4C204.198 0.466666 207.048 -5.96046e-07 210.081 -5.96046e-07C212.614 -5.96046e-07 214.898 0.316666 216.931 0.949999C218.964 1.58333 220.698 2.51667 222.131 3.75C223.564 4.95 224.664 6.43333 225.431 8.2C226.198 9.96667 226.581 11.9667 226.581 14.2H217.731C217.531 11.7667 216.631 9.91666 215.031 8.65C213.464 7.38333 211.331 6.75 208.631 6.75C206.964 6.75 205.364 7.06667 203.831 7.7C202.331 8.3 200.948 9.18333 199.681 10.35C198.414 11.4833 197.314 12.9 196.381 14.6C195.448 16.3 194.748 18.2167 194.281 20.35C193.814 22.5167 193.681 24.45 193.881 26.15C194.081 27.8167 194.548 29.2333 195.281 30.4C196.048 31.5667 197.064 32.4667 198.331 33.1C199.631 33.7 201.131 34 202.831 34C204.698 34 206.364 33.7667 207.831 33.3C209.298 32.8333 210.564 32.1833 211.631 31.35C212.731 30.4833 213.648 29.4667 214.381 28.3C215.114 27.1333 215.698 25.8667 216.131 24.5H203.831L205.231 18H226.231L225.581 20.95ZM250.882 31.8H235.782L231.282 40H222.532L245.432 0.749999H254.432L260.732 40H251.982L250.882 31.8ZM246.982 11.6L239.482 25.15H250.032L248.282 11.6L248.132 9.3L246.982 11.6ZM278.891 16.7L278.741 13.65L273.141 40H264.441L272.741 0.749999H282.691L287.341 23.3L287.541 26.15L288.941 23.3L303.191 0.749999H313.141L304.841 40H296.141L301.741 13.65L300.291 16.7L288.491 35.8H282.491L278.891 16.7ZM319.853 0.749999H350.053L348.653 7.5H327.203L325.203 16.8H345.653L344.253 23.5H323.803L321.703 33.25H343.653L342.253 40H311.553L319.853 0.749999Z" fill="url(#paint0_linear_264_2693)"/>
<defs>
<linearGradient id="paint0_linear_264_2693" x1="175" y1="-31" x2="175" y2="69" gradientUnits="userSpaceOnUse">
<stop offset="0.145833" stop-color="#245DCC"/>
<stop offset="1" stop-color="#9C38FF" stop-opacity="0.42"/>
</linearGradient>
</defs>
</svg>
