<svg width="50" height="50" viewBox="0 0 54 54" fill="none" xmlns="http://www.w3.org/2000/svg">
<path d="M2 52C2 48.4625 2 46.695 3.1 45.6C4.1975 44.5 5.965 44.5 9.5 44.5C13.0375 44.5 14.805 44.5 15.9 45.6C17 46.6975 17 48.465 17 52V29.5C17 25.9625 17 24.195 18.1 23.1C19.1975 22 20.965 22 24.5 22H29.5C33.0375 22 34.805 22 35.9 23.1C37 24.1975 37 25.965 37 29.5V52V44.5C37 40.9625 37 39.195 38.1 38.1C39.1975 37 40.965 37 44.5 37C48.0375 37 49.805 37 50.9 38.1C52 39.1975 52 40.965 52 44.5V52" stroke="#1F2021" stroke-width="3.75" stroke-linecap="round"/>
<path d="M24.8657 4.5575C25.8157 2.85 26.2907 2 27.0007 2C27.7107 2 28.1857 2.85 29.1357 4.5575L29.3807 4.9975C29.6507 5.4825 29.7857 5.7225 29.9957 5.8825C30.2082 6.0425 30.4707 6.1025 30.9957 6.22L31.4707 6.33C33.3157 6.7475 34.2382 6.955 34.4582 7.66C34.6782 8.3675 34.0482 9.1025 32.7907 10.5725L32.4657 10.9525C32.1082 11.37 31.9282 11.5775 31.8482 11.8375C31.7682 12.0975 31.7957 12.375 31.8482 12.9325L31.8982 13.44C32.0882 15.4025 32.1832 16.385 31.6107 16.82C31.0357 17.2575 30.1707 16.8575 28.4432 16.0625L27.9982 15.8575C27.5057 15.6325 27.2607 15.5175 27.0007 15.5175C26.7407 15.5175 26.4957 15.6325 26.0032 15.8575L25.5582 16.0625C23.8307 16.8575 22.9657 17.2575 22.3907 16.82C21.8157 16.385 21.9132 15.4025 22.1032 13.44L22.1532 12.9325C22.2057 12.375 22.2332 12.0975 22.1532 11.8375C22.0732 11.58 21.8932 11.37 21.5357 10.9525L21.2107 10.5725C19.9532 9.1025 19.3232 8.3675 19.5432 7.66C19.7632 6.955 20.6857 6.7475 22.5307 6.33L23.0057 6.22C23.5307 6.1025 23.7932 6.045 24.0057 5.8825C24.2157 5.7225 24.3507 5.4825 24.6207 4.9975L24.8657 4.5575Z" stroke="#1F2021" stroke-width="3.75"/>
</svg>
