<svg width="20" height="14" viewBox="0 0 20 14" fill="none" xmlns="http://www.w3.org/2000/svg">
<path d="M18.3496 2.40039C18.8835 2.93424 19.2904 3.53971 19.5703 4.2168C19.8503 4.89388 19.9935 5.61328 20 6.375C20 6.60286 19.9935 6.8763 19.9805 7.19531C19.9674 7.51432 19.9414 7.85938 19.9023 8.23047C19.8633 8.60156 19.8014 8.98242 19.7168 9.37305C19.6322 9.76367 19.5247 10.151 19.3945 10.5352C19.1992 11.0951 18.9714 11.5508 18.7109 11.9023C18.4505 12.2539 18.1803 12.5306 17.9004 12.7324C17.6204 12.9342 17.3372 13.071 17.0508 13.1426C16.7643 13.2142 16.4974 13.25 16.25 13.25C16.0352 13.25 15.8398 13.2142 15.6641 13.1426C15.4883 13.071 15.319 12.9733 15.1562 12.8496C14.9935 12.7259 14.8438 12.5924 14.707 12.4492C14.5703 12.306 14.4303 12.1497 14.2871 11.9805C14.1504 11.8242 14.0169 11.6745 13.8867 11.5312C13.7565 11.388 13.6165 11.2611 13.4668 11.1504C13.3171 11.0397 13.1673 10.9453 13.0176 10.8672C12.8678 10.7891 12.6921 10.75 12.4902 10.75H7.50977C7.32096 10.7565 7.14844 10.7956 6.99219 10.8672C6.83594 10.9388 6.68294 11.0299 6.5332 11.1406C6.38346 11.2513 6.24674 11.3815 6.12305 11.5312C5.99935 11.681 5.86263 11.8307 5.71289 11.9805C5.57617 12.1367 5.43945 12.2897 5.30273 12.4395C5.16602 12.5892 5.01628 12.7259 4.85352 12.8496C4.69076 12.9733 4.52148 13.0677 4.3457 13.1328C4.16992 13.1979 3.97135 13.237 3.75 13.25C3.5026 13.25 3.23568 13.2142 2.94922 13.1426C2.66276 13.071 2.37956 12.9375 2.09961 12.7422C1.81966 12.5469 1.54948 12.2702 1.28906 11.9121C1.02865 11.554 0.800781 11.0951 0.605469 10.5352C0.47526 10.1576 0.371094 9.77344 0.292969 9.38281C0.214844 8.99219 0.152995 8.60807 0.107422 8.23047C0.061849 7.85286 0.0325521 7.50781 0.0195312 7.19531C0.00651042 6.88281 0 6.60938 0 6.375C0 5.61979 0.139974 4.90365 0.419922 4.22656C0.69987 3.54948 1.11003 2.94076 1.65039 2.40039C2.17773 1.86654 2.7832 1.45964 3.4668 1.17969C4.15039 0.89974 4.86979 0.75651 5.625 0.75H14.375C15.1302 0.75 15.8464 0.889974 16.5234 1.16992C17.2005 1.44987 17.8092 1.86003 18.3496 2.40039ZM18.2129 10.125C18.3366 9.77995 18.4342 9.42188 18.5059 9.05078C18.5775 8.67969 18.6296 8.32487 18.6621 7.98633C18.6947 7.64779 18.7174 7.33529 18.7305 7.04883C18.7435 6.76237 18.75 6.53776 18.75 6.375C18.75 5.76953 18.6361 5.20312 18.4082 4.67578C18.1803 4.14844 17.8678 3.6862 17.4707 3.28906C17.0736 2.89193 16.6113 2.57943 16.084 2.35156C15.5566 2.1237 14.987 2.00651 14.375 2H5.625C5.01953 2 4.45312 2.11393 3.92578 2.3418C3.39844 2.56966 2.9362 2.88216 2.53906 3.2793C2.14193 3.67643 1.82943 4.13867 1.60156 4.66602C1.3737 5.19336 1.25651 5.76302 1.25 6.375C1.25 6.54427 1.25326 6.76888 1.25977 7.04883C1.26628 7.32878 1.28906 7.63802 1.32812 7.97656C1.36719 8.3151 1.42253 8.67318 1.49414 9.05078C1.56576 9.42839 1.66341 9.78646 1.78711 10.125C1.94987 10.5938 2.12891 10.9551 2.32422 11.209C2.51953 11.4629 2.70833 11.6484 2.89062 11.7656C3.07292 11.8828 3.24219 11.9512 3.39844 11.9707C3.55469 11.9902 3.67188 12 3.75 12C3.89323 12 4.04948 11.9154 4.21875 11.7461C4.38802 11.5768 4.57031 11.3815 4.76562 11.1602C4.92188 10.9779 5.08789 10.7923 5.26367 10.6035C5.43945 10.4147 5.63802 10.2389 5.85938 10.0762C6.08073 9.91341 6.32487 9.77995 6.5918 9.67578C6.85872 9.57161 7.15495 9.51302 7.48047 9.5H12.5195C12.8451 9.51302 13.1413 9.57161 13.4082 9.67578C13.6751 9.77995 13.916 9.91016 14.1309 10.0664C14.3457 10.2227 14.5443 10.3984 14.7266 10.5938C14.9089 10.7891 15.0781 10.9779 15.2344 11.1602C15.4232 11.375 15.6022 11.5671 15.7715 11.7363C15.9408 11.9056 16.1003 11.9935 16.25 12C16.3281 12 16.4421 11.9902 16.5918 11.9707C16.7415 11.9512 16.9108 11.8828 17.0996 11.7656C17.2884 11.6484 17.4805 11.4629 17.6758 11.209C17.8711 10.9551 18.0501 10.5938 18.2129 10.125ZM5 5.75H6.25V7H5V8.25H3.75V7H2.5V5.75H3.75V4.5H5V5.75ZM16.25 7C16.4258 7 16.5885 7.03255 16.7383 7.09766C16.888 7.16276 17.0182 7.25065 17.1289 7.36133C17.2396 7.47201 17.3307 7.60547 17.4023 7.76172C17.474 7.91797 17.5065 8.08073 17.5 8.25C17.5 8.42578 17.4674 8.58854 17.4023 8.73828C17.3372 8.88802 17.2493 9.01823 17.1387 9.12891C17.028 9.23958 16.8945 9.33073 16.7383 9.40234C16.582 9.47396 16.4193 9.50651 16.25 9.5C16.0742 9.5 15.9115 9.46745 15.7617 9.40234C15.612 9.33724 15.4818 9.24935 15.3711 9.13867C15.2604 9.02799 15.1693 8.89453 15.0977 8.73828C15.026 8.58203 14.9935 8.41927 15 8.25C15 8.07422 15.0326 7.91146 15.0977 7.76172C15.1628 7.61198 15.2507 7.48177 15.3613 7.37109C15.472 7.26042 15.6055 7.16927 15.7617 7.09766C15.918 7.02604 16.0807 6.99349 16.25 7ZM13.75 4.5C13.9258 4.5 14.0885 4.53255 14.2383 4.59766C14.388 4.66276 14.5182 4.75065 14.6289 4.86133C14.7396 4.97201 14.8307 5.10547 14.9023 5.26172C14.974 5.41797 15.0065 5.58073 15 5.75C15 5.92578 14.9674 6.08854 14.9023 6.23828C14.8372 6.38802 14.7493 6.51823 14.6387 6.62891C14.528 6.73958 14.3945 6.83073 14.2383 6.90234C14.082 6.97396 13.9193 7.00651 13.75 7C13.5742 7 13.4115 6.96745 13.2617 6.90234C13.112 6.83724 12.9818 6.74935 12.8711 6.63867C12.7604 6.52799 12.6693 6.39453 12.5977 6.23828C12.526 6.08203 12.4935 5.91927 12.5 5.75C12.5 5.57422 12.5326 5.41146 12.5977 5.26172C12.6628 5.11198 12.7507 4.98177 12.8613 4.87109C12.972 4.76042 13.1055 4.66927 13.2617 4.59766C13.418 4.52604 13.5807 4.49349 13.75 4.5Z" fill="#98989E"/>
</svg>
