<svg width="20" height="20" viewBox="0 0 20 20" fill="none" xmlns="http://www.w3.org/2000/svg">
<path d="M13.332 10.0007C15.3104 10.9865 16.6654 13.0423 16.6654 15.834V19.1673H3.33203V15.834C3.33203 13.039 4.6912 10.9798 6.66536 10.0007M14.9987 5.83398C14.9987 6.49059 14.8694 7.14077 14.6181 7.7474C14.3668 8.35403 13.9985 8.90522 13.5342 9.36952C13.0699 9.83381 12.5187 10.2021 11.9121 10.4534C11.3055 10.7047 10.6553 10.834 9.9987 10.834C8.67262 10.834 7.40085 10.3072 6.46316 9.36952C5.52548 8.43184 4.9987 7.16007 4.9987 5.83398M14.9987 5.83398C14.9987 5.17737 14.8694 4.52719 14.6181 3.92057C14.3668 3.31394 13.9985 2.76274 13.5342 2.29845C13.0699 1.83416 12.5187 1.46586 11.9121 1.21459C11.3055 0.963313 10.6553 0.833984 9.9987 0.833984C8.67262 0.833984 7.40085 1.36077 6.46316 2.29845C5.52548 3.23613 4.9987 4.5079 4.9987 5.83398M14.9987 5.83398C13.7487 5.83398 12.4987 6.13398 10.832 4.16732C9.16536 6.13398 7.08203 6.66732 4.9987 5.83398M5.83203 10.834L10.0195 15.2148L14.1654 10.834M9.9987 15.0006V19.1673" stroke="#1F2021" stroke-width="1.66667"/>
</svg>
