<svg width="20" height="20" viewBox="0 0 20 20" fill="none" xmlns="http://www.w3.org/2000/svg">
<path d="M8.74997 1.24512C8.22852 1.24512 7.74284 1.3429 7.29297 1.53849C6.84322 1.73404 6.44558 2.0013 6.1001 2.34026C5.75457 2.67928 5.48403 3.08021 5.28847 3.54302C5.0929 4.00587 4.99512 4.49154 4.99512 5C4.99512 5.52146 5.09289 6.00715 5.28849 6.45703L12.5 5H12.5049C12.5049 4.99998 12.5049 4.99996 12.5049 4.99994C12.5049 4.485 12.4071 3.99934 12.2115 3.543C12.016 3.08672 11.7487 2.68906 11.4097 2.35006C11.0707 2.01107 10.6698 1.74055 10.207 1.53849C9.74416 1.3364 9.25846 1.2386 8.74997 1.24512ZM8.74997 1.24512C8.74998 1.24512 8.74999 1.24512 8.75 1.24512V1.25L8.74994 1.24512C8.74995 1.24512 8.74996 1.24512 8.74997 1.24512ZM2.71991 14.5885C2.57047 15.1213 2.49554 15.6735 2.49512 16.2451H1.25488C1.25536 15.4661 1.36922 14.7163 1.59645 13.9956C1.82417 13.2734 2.15272 12.6066 2.58212 11.995C3.01155 11.3834 3.51905 10.8401 4.10464 10.3651C4.69014 9.89021 5.35373 9.51612 6.09544 9.24286L6.09375 9.23828L6.09206 9.2337L6.09092 9.23059L6.09643 9.2342C5.36137 8.75283 4.78901 8.14793 4.37926 7.41948C3.96953 6.69109 3.76139 5.88463 3.75488 5C3.75488 4.31053 3.88497 3.6634 4.14511 3.05857C4.40529 2.45364 4.75978 1.92356 5.20856 1.46827C5.65731 1.01301 6.18737 0.655295 6.79879 0.395118C7.41014 0.134968 8.06053 0.00488281 8.75 0.00488281C9.43947 0.00488281 10.0866 0.134968 10.6914 0.395111C11.2964 0.655295 11.8264 1.00978 12.2817 1.45856C12.737 1.90731 13.0947 2.43737 13.3549 3.04879C13.615 3.66014 13.7451 4.31053 13.7451 5C13.7451 5.42929 13.6931 5.84881 13.589 6.25856C13.485 6.6683 13.3289 7.05525 13.1208 7.41945C12.9126 7.78373 12.6687 8.11872 12.389 8.42444C12.1094 8.73007 11.7809 8.99998 11.4037 9.23413L11.4062 9.23828L11.4088 9.24243L11.4105 9.24515L11.4045 9.24284C12.1332 9.52261 12.8033 9.90647 13.4149 10.3944C14.0261 10.8821 14.5529 11.4542 14.9951 12.1109V14.9951H14.877C14.727 14.2669 14.4634 13.5971 14.0862 12.9857C13.7083 12.3733 13.249 11.8455 12.7082 11.4025C12.1674 10.9594 11.5582 10.6141 10.8806 10.3665C10.2029 10.1189 9.49274 9.99512 8.75 9.99512C8.17665 9.99512 7.62282 10.07 7.08853 10.2199C6.55429 10.3698 6.05587 10.5782 5.59326 10.8454C5.13064 11.1125 4.71037 11.4383 4.33246 11.8227C3.95457 12.2071 3.62881 12.6306 3.35517 13.0932C3.08151 13.5558 2.86976 14.0543 2.71991 14.5885ZM17.5 16.2549H19.9951V17.4951H17.5V17.5H17.4951V19.9951H16.2549V17.5H16.25V17.4951H13.7549V16.2549H16.25V16.25H16.2549V13.7549H17.4951V16.25H17.5V16.2549Z" fill="#1F2021" stroke="#1F2021" stroke-width="0.00976562"/>
</svg>
