<svg width="20" height="20" viewBox="0 0 20 20" fill="none" xmlns="http://www.w3.org/2000/svg">
<mask id="path-1-inside-1_281_2742" fill="white">
<path d="M18.3496 5.40039C18.8835 5.93424 19.2904 6.53971 19.5703 7.2168C19.8503 7.89388 19.9935 8.61328 20 9.375C20 9.60286 19.9935 9.8763 19.9805 10.1953C19.9674 10.5143 19.9414 10.8594 19.9023 11.2305C19.8633 11.6016 19.8014 11.9824 19.7168 12.373C19.6322 12.7637 19.5247 13.151 19.3945 13.5352C19.1992 14.0951 18.9714 14.5508 18.7109 14.9023C18.4505 15.2539 18.1803 15.5306 17.9004 15.7324C17.6204 15.9342 17.3372 16.071 17.0508 16.1426C16.7643 16.2142 16.4974 16.25 16.25 16.25C16.0352 16.25 15.8398 16.2142 15.6641 16.1426C15.4883 16.071 15.319 15.9733 15.1562 15.8496C14.9935 15.7259 14.8438 15.5924 14.707 15.4492C14.5703 15.306 14.4303 15.1497 14.2871 14.9805C14.1504 14.8242 14.0169 14.6745 13.8867 14.5312C13.7565 14.388 13.6165 14.2611 13.4668 14.1504C13.3171 14.0397 13.1673 13.9453 13.0176 13.8672C12.8678 13.7891 12.6921 13.75 12.4902 13.75H7.50977C7.32096 13.7565 7.14844 13.7956 6.99219 13.8672C6.83594 13.9388 6.68294 14.0299 6.5332 14.1406C6.38346 14.2513 6.24674 14.3815 6.12305 14.5312C5.99935 14.681 5.86263 14.8307 5.71289 14.9805C5.57617 15.1367 5.43945 15.2897 5.30273 15.4395C5.16602 15.5892 5.01628 15.7259 4.85352 15.8496C4.69076 15.9733 4.52148 16.0677 4.3457 16.1328C4.16992 16.1979 3.97135 16.237 3.75 16.25C3.5026 16.25 3.23568 16.2142 2.94922 16.1426C2.66276 16.071 2.37956 15.9375 2.09961 15.7422C1.81966 15.5469 1.54948 15.2702 1.28906 14.9121C1.02865 14.554 0.800781 14.0951 0.605469 13.5352C0.47526 13.1576 0.371094 12.7734 0.292969 12.3828C0.214844 11.9922 0.152995 11.6081 0.107422 11.2305C0.061849 10.8529 0.0325521 10.5078 0.0195312 10.1953C0.00651042 9.88281 0 9.60938 0 9.375C0 8.61979 0.139974 7.90365 0.419922 7.22656C0.69987 6.54948 1.11003 5.94076 1.65039 5.40039C2.17773 4.86654 2.7832 4.45964 3.4668 4.17969C4.15039 3.89974 4.86979 3.75651 5.625 3.75H14.375C15.1302 3.75 15.8464 3.88997 16.5234 4.16992C17.2005 4.44987 17.8092 4.86003 18.3496 5.40039ZM18.2129 13.125C18.3366 12.7799 18.4342 12.4219 18.5059 12.0508C18.5775 11.6797 18.6296 11.3249 18.6621 10.9863C18.6947 10.6478 18.7174 10.3353 18.7305 10.0488C18.7435 9.76237 18.75 9.53776 18.75 9.375C18.75 8.76953 18.6361 8.20312 18.4082 7.67578C18.1803 7.14844 17.8678 6.6862 17.4707 6.28906C17.0736 5.89193 16.6113 5.57943 16.084 5.35156C15.5566 5.1237 14.987 5.00651 14.375 5H5.625C5.01953 5 4.45312 5.11393 3.92578 5.3418C3.39844 5.56966 2.9362 5.88216 2.53906 6.2793C2.14193 6.67643 1.82943 7.13867 1.60156 7.66602C1.3737 8.19336 1.25651 8.76302 1.25 9.375C1.25 9.54427 1.25326 9.76888 1.25977 10.0488C1.26628 10.3288 1.28906 10.638 1.32812 10.9766C1.36719 11.3151 1.42253 11.6732 1.49414 12.0508C1.56576 12.4284 1.66341 12.7865 1.78711 13.125C1.94987 13.5938 2.12891 13.9551 2.32422 14.209C2.51953 14.4629 2.70833 14.6484 2.89062 14.7656C3.07292 14.8828 3.24219 14.9512 3.39844 14.9707C3.55469 14.9902 3.67188 15 3.75 15C3.89323 15 4.04948 14.9154 4.21875 14.7461C4.38802 14.5768 4.57031 14.3815 4.76562 14.1602C4.92188 13.9779 5.08789 13.7923 5.26367 13.6035C5.43945 13.4147 5.63802 13.2389 5.85938 13.0762C6.08073 12.9134 6.32487 12.7799 6.5918 12.6758C6.85872 12.5716 7.15495 12.513 7.48047 12.5H12.5195C12.8451 12.513 13.1413 12.5716 13.4082 12.6758C13.6751 12.7799 13.916 12.9102 14.1309 13.0664C14.3457 13.2227 14.5443 13.3984 14.7266 13.5938C14.9089 13.7891 15.0781 13.9779 15.2344 14.1602C15.4232 14.375 15.6022 14.5671 15.7715 14.7363C15.9408 14.9056 16.1003 14.9935 16.25 15C16.3281 15 16.4421 14.9902 16.5918 14.9707C16.7415 14.9512 16.9108 14.8828 17.0996 14.7656C17.2884 14.6484 17.4805 14.4629 17.6758 14.209C17.8711 13.9551 18.0501 13.5938 18.2129 13.125ZM5 8.75H6.25V10H5V11.25H3.75V10H2.5V8.75H3.75V7.5H5V8.75ZM16.25 10C16.4258 10 16.5885 10.0326 16.7383 10.0977C16.888 10.1628 17.0182 10.2507 17.1289 10.3613C17.2396 10.472 17.3307 10.6055 17.4023 10.7617C17.474 10.918 17.5065 11.0807 17.5 11.25C17.5 11.4258 17.4674 11.5885 17.4023 11.7383C17.3372 11.888 17.2493 12.0182 17.1387 12.1289C17.028 12.2396 16.8945 12.3307 16.7383 12.4023C16.582 12.474 16.4193 12.5065 16.25 12.5C16.0742 12.5 15.9115 12.4674 15.7617 12.4023C15.612 12.3372 15.4818 12.2493 15.3711 12.1387C15.2604 12.028 15.1693 11.8945 15.0977 11.7383C15.026 11.582 14.9935 11.4193 15 11.25C15 11.0742 15.0326 10.9115 15.0977 10.7617C15.1628 10.612 15.2507 10.4818 15.3613 10.3711C15.472 10.2604 15.6055 10.1693 15.7617 10.0977C15.918 10.026 16.0807 9.99349 16.25 10ZM13.75 7.5C13.9258 7.5 14.0885 7.53255 14.2383 7.59766C14.388 7.66276 14.5182 7.75065 14.6289 7.86133C14.7396 7.97201 14.8307 8.10547 14.9023 8.26172C14.974 8.41797 15.0065 8.58073 15 8.75C15 8.92578 14.9674 9.08854 14.9023 9.23828C14.8372 9.38802 14.7493 9.51823 14.6387 9.62891C14.528 9.73958 14.3945 9.83073 14.2383 9.90234C14.082 9.97396 13.9193 10.0065 13.75 10C13.5742 10 13.4115 9.96745 13.2617 9.90234C13.112 9.83724 12.9818 9.74935 12.8711 9.63867C12.7604 9.52799 12.6693 9.39453 12.5977 9.23828C12.526 9.08203 12.4935 8.91927 12.5 8.75C12.5 8.57422 12.5326 8.41146 12.5977 8.26172C12.6628 8.11198 12.7507 7.98177 12.8613 7.87109C12.972 7.76042 13.1055 7.66927 13.2617 7.59766C13.418 7.52604 13.5807 7.49349 13.75 7.5Z"/>
</mask>
<path d="M18.3496 5.40039C18.8835 5.93424 19.2904 6.53971 19.5703 7.2168C19.8503 7.89388 19.9935 8.61328 20 9.375C20 9.60286 19.9935 9.8763 19.9805 10.1953C19.9674 10.5143 19.9414 10.8594 19.9023 11.2305C19.8633 11.6016 19.8014 11.9824 19.7168 12.373C19.6322 12.7637 19.5247 13.151 19.3945 13.5352C19.1992 14.0951 18.9714 14.5508 18.7109 14.9023C18.4505 15.2539 18.1803 15.5306 17.9004 15.7324C17.6204 15.9342 17.3372 16.071 17.0508 16.1426C16.7643 16.2142 16.4974 16.25 16.25 16.25C16.0352 16.25 15.8398 16.2142 15.6641 16.1426C15.4883 16.071 15.319 15.9733 15.1562 15.8496C14.9935 15.7259 14.8438 15.5924 14.707 15.4492C14.5703 15.306 14.4303 15.1497 14.2871 14.9805C14.1504 14.8242 14.0169 14.6745 13.8867 14.5312C13.7565 14.388 13.6165 14.2611 13.4668 14.1504C13.3171 14.0397 13.1673 13.9453 13.0176 13.8672C12.8678 13.7891 12.6921 13.75 12.4902 13.75H7.50977C7.32096 13.7565 7.14844 13.7956 6.99219 13.8672C6.83594 13.9388 6.68294 14.0299 6.5332 14.1406C6.38346 14.2513 6.24674 14.3815 6.12305 14.5312C5.99935 14.681 5.86263 14.8307 5.71289 14.9805C5.57617 15.1367 5.43945 15.2897 5.30273 15.4395C5.16602 15.5892 5.01628 15.7259 4.85352 15.8496C4.69076 15.9733 4.52148 16.0677 4.3457 16.1328C4.16992 16.1979 3.97135 16.237 3.75 16.25C3.5026 16.25 3.23568 16.2142 2.94922 16.1426C2.66276 16.071 2.37956 15.9375 2.09961 15.7422C1.81966 15.5469 1.54948 15.2702 1.28906 14.9121C1.02865 14.554 0.800781 14.0951 0.605469 13.5352C0.47526 13.1576 0.371094 12.7734 0.292969 12.3828C0.214844 11.9922 0.152995 11.6081 0.107422 11.2305C0.061849 10.8529 0.0325521 10.5078 0.0195312 10.1953C0.00651042 9.88281 0 9.60938 0 9.375C0 8.61979 0.139974 7.90365 0.419922 7.22656C0.69987 6.54948 1.11003 5.94076 1.65039 5.40039C2.17773 4.86654 2.7832 4.45964 3.4668 4.17969C4.15039 3.89974 4.86979 3.75651 5.625 3.75H14.375C15.1302 3.75 15.8464 3.88997 16.5234 4.16992C17.2005 4.44987 17.8092 4.86003 18.3496 5.40039ZM18.2129 13.125C18.3366 12.7799 18.4342 12.4219 18.5059 12.0508C18.5775 11.6797 18.6296 11.3249 18.6621 10.9863C18.6947 10.6478 18.7174 10.3353 18.7305 10.0488C18.7435 9.76237 18.75 9.53776 18.75 9.375C18.75 8.76953 18.6361 8.20312 18.4082 7.67578C18.1803 7.14844 17.8678 6.6862 17.4707 6.28906C17.0736 5.89193 16.6113 5.57943 16.084 5.35156C15.5566 5.1237 14.987 5.00651 14.375 5H5.625C5.01953 5 4.45312 5.11393 3.92578 5.3418C3.39844 5.56966 2.9362 5.88216 2.53906 6.2793C2.14193 6.67643 1.82943 7.13867 1.60156 7.66602C1.3737 8.19336 1.25651 8.76302 1.25 9.375C1.25 9.54427 1.25326 9.76888 1.25977 10.0488C1.26628 10.3288 1.28906 10.638 1.32812 10.9766C1.36719 11.3151 1.42253 11.6732 1.49414 12.0508C1.56576 12.4284 1.66341 12.7865 1.78711 13.125C1.94987 13.5938 2.12891 13.9551 2.32422 14.209C2.51953 14.4629 2.70833 14.6484 2.89062 14.7656C3.07292 14.8828 3.24219 14.9512 3.39844 14.9707C3.55469 14.9902 3.67188 15 3.75 15C3.89323 15 4.04948 14.9154 4.21875 14.7461C4.38802 14.5768 4.57031 14.3815 4.76562 14.1602C4.92188 13.9779 5.08789 13.7923 5.26367 13.6035C5.43945 13.4147 5.63802 13.2389 5.85938 13.0762C6.08073 12.9134 6.32487 12.7799 6.5918 12.6758C6.85872 12.5716 7.15495 12.513 7.48047 12.5H12.5195C12.8451 12.513 13.1413 12.5716 13.4082 12.6758C13.6751 12.7799 13.916 12.9102 14.1309 13.0664C14.3457 13.2227 14.5443 13.3984 14.7266 13.5938C14.9089 13.7891 15.0781 13.9779 15.2344 14.1602C15.4232 14.375 15.6022 14.5671 15.7715 14.7363C15.9408 14.9056 16.1003 14.9935 16.25 15C16.3281 15 16.4421 14.9902 16.5918 14.9707C16.7415 14.9512 16.9108 14.8828 17.0996 14.7656C17.2884 14.6484 17.4805 14.4629 17.6758 14.209C17.8711 13.9551 18.0501 13.5938 18.2129 13.125ZM5 8.75H6.25V10H5V11.25H3.75V10H2.5V8.75H3.75V7.5H5V8.75ZM16.25 10C16.4258 10 16.5885 10.0326 16.7383 10.0977C16.888 10.1628 17.0182 10.2507 17.1289 10.3613C17.2396 10.472 17.3307 10.6055 17.4023 10.7617C17.474 10.918 17.5065 11.0807 17.5 11.25C17.5 11.4258 17.4674 11.5885 17.4023 11.7383C17.3372 11.888 17.2493 12.0182 17.1387 12.1289C17.028 12.2396 16.8945 12.3307 16.7383 12.4023C16.582 12.474 16.4193 12.5065 16.25 12.5C16.0742 12.5 15.9115 12.4674 15.7617 12.4023C15.612 12.3372 15.4818 12.2493 15.3711 12.1387C15.2604 12.028 15.1693 11.8945 15.0977 11.7383C15.026 11.582 14.9935 11.4193 15 11.25C15 11.0742 15.0326 10.9115 15.0977 10.7617C15.1628 10.612 15.2507 10.4818 15.3613 10.3711C15.472 10.2604 15.6055 10.1693 15.7617 10.0977C15.918 10.026 16.0807 9.99349 16.25 10ZM13.75 7.5C13.9258 7.5 14.0885 7.53255 14.2383 7.59766C14.388 7.66276 14.5182 7.75065 14.6289 7.86133C14.7396 7.97201 14.8307 8.10547 14.9023 8.26172C14.974 8.41797 15.0065 8.58073 15 8.75C15 8.92578 14.9674 9.08854 14.9023 9.23828C14.8372 9.38802 14.7493 9.51823 14.6387 9.62891C14.528 9.73958 14.3945 9.83073 14.2383 9.90234C14.082 9.97396 13.9193 10.0065 13.75 10C13.5742 10 13.4115 9.96745 13.2617 9.90234C13.112 9.83724 12.9818 9.74935 12.8711 9.63867C12.7604 9.52799 12.6693 9.39453 12.5977 9.23828C12.526 9.08203 12.4935 8.91927 12.5 8.75C12.5 8.57422 12.5326 8.41146 12.5977 8.26172C12.6628 8.11198 12.7507 7.98177 12.8613 7.87109C12.972 7.76042 13.1055 7.66927 13.2617 7.59766C13.418 7.52604 13.5807 7.49349 13.75 7.5Z" fill="#1F2021" stroke="#1F2021" stroke-width="0.0195312" mask="url(#path-1-inside-1_281_2742)"/>
</svg>
