<svg width="28" height="28" viewBox="0 0 28 28" fill="none" xmlns="http://www.w3.org/2000/svg">
<path d="M11.5538 19.1439L6.25 13.8389L8.0175 12.0714L11.5538 15.6064L18.6238 8.53516L20.3925 10.3039L11.5538 19.1414V19.1439Z" fill="black"/>
<path fill-rule="evenodd" clip-rule="evenodd" d="M0 13.75C0 6.15625 6.15625 0 13.75 0C21.3438 0 27.5 6.15625 27.5 13.75C27.5 21.3438 21.3438 27.5 13.75 27.5C6.15625 27.5 0 21.3438 0 13.75ZM13.75 25C12.2726 25 10.8097 24.709 9.44481 24.1436C8.0799 23.5783 6.83971 22.7496 5.79505 21.705C4.75039 20.6603 3.92172 19.4201 3.35636 18.0552C2.79099 16.6903 2.5 15.2274 2.5 13.75C2.5 12.2726 2.79099 10.8097 3.35636 9.44481C3.92172 8.0799 4.75039 6.83971 5.79505 5.79505C6.83971 4.75039 8.0799 3.92172 9.44481 3.35636C10.8097 2.79099 12.2726 2.5 13.75 2.5C16.7337 2.5 19.5952 3.68526 21.705 5.79505C23.8147 7.90483 25 10.7663 25 13.75C25 16.7337 23.8147 19.5952 21.705 21.705C19.5952 23.8147 16.7337 25 13.75 25Z" fill="black"/>
</svg>
