<svg width="40" height="40" viewBox="0 0 40 40" fill="none" xmlns="http://www.w3.org/2000/svg">
<path d="M19.1654 6.66732C17.6183 6.66732 16.1345 7.2819 15.0406 8.37586C13.9466 9.46982 13.332 10.9536 13.332 12.5007C13.332 14.0477 13.9466 15.5315 15.0406 16.6254C16.1345 17.7194 17.6183 18.334 19.1654 18.334C20.7125 18.334 22.1962 17.7194 23.2902 16.6254C24.3841 15.5315 24.9987 14.0477 24.9987 12.5007C24.9987 10.9536 24.3841 9.46982 23.2902 8.37586C22.1962 7.2819 20.7125 6.66732 19.1654 6.66732ZM9.9987 12.5007C9.9987 10.0695 10.9645 7.73792 12.6836 6.01884C14.4026 4.29976 16.7342 3.33398 19.1654 3.33398C21.5965 3.33398 23.9281 4.29976 25.6472 6.01884C27.3663 7.73792 28.332 10.0695 28.332 12.5007C28.332 14.9318 27.3663 17.2634 25.6472 18.9825C23.9281 20.7015 21.5965 21.6673 19.1654 21.6673C16.7342 21.6673 14.4026 20.7015 12.6836 18.9825C10.9645 17.2634 9.9987 14.9318 9.9987 12.5007ZM31.6654 21.6673V28.334H38.332V31.6673H31.6654V38.334H28.332V31.6673H21.6654V28.334H28.332V21.6673H31.6654ZM13.332 26.6673C11.5639 26.6673 9.86823 27.3697 8.61799 28.6199C7.36774 29.8702 6.66536 31.5659 6.66536 33.334H20.082V36.6673H3.33203V33.334C3.33203 30.6818 4.3856 28.1383 6.26096 26.2629C8.13633 24.3876 10.6799 23.334 13.332 23.334H19.9987V26.6673H13.332Z" fill="black"/>
</svg>
