<svg width="60" height="60" viewBox="0 0 60 60" fill="none" xmlns="http://www.w3.org/2000/svg">
<path d="M45 32.4951H32.5V44.9951C32.5 45.6582 32.2366 46.294 31.7678 46.7629C31.2989 47.2317 30.663 47.4951 30 47.4951C29.337 47.4951 28.7011 47.2317 28.2322 46.7629C27.7634 46.294 27.5 45.6582 27.5 44.9951V32.4951H15C14.337 32.4951 13.7011 32.2317 13.2322 31.7629C12.7634 31.294 12.5 30.6582 12.5 29.9951C12.5 29.3321 12.7634 28.6962 13.2322 28.2274C13.7011 27.7585 14.337 27.4951 15 27.4951H27.5V14.9951C27.5 14.3321 27.7634 13.6962 28.2322 13.2273C28.7011 12.7585 29.337 12.4951 30 12.4951C30.663 12.4951 31.2989 12.7585 31.7678 13.2273C32.2366 13.6962 32.5 14.3321 32.5 14.9951V27.4951H45C45.663 27.4951 46.2989 27.7585 46.7678 28.2274C47.2366 28.6962 47.5 29.3321 47.5 29.9951C47.5 30.6582 47.2366 31.294 46.7678 31.7629C46.2989 32.2317 45.663 32.4951 45 32.4951Z" fill="black"/>
</svg>
