<svg width="30" height="30" viewBox="0 0 30 30" fill="none" xmlns="http://www.w3.org/2000/svg">
<path fill-rule="evenodd" clip-rule="evenodd" d="M22.5 13.125C23.4946 13.125 24.4484 13.5201 25.1517 14.2233C25.8549 14.9266 26.25 15.8804 26.25 16.875V24.375C26.25 25.3696 25.8549 26.3234 25.1517 27.0267C24.4484 27.7299 23.4946 28.125 22.5 28.125H7.5C6.50544 28.125 5.55161 27.7299 4.84835 27.0267C4.14509 26.3234 3.75 25.3696 3.75 24.375V16.875C3.75 15.8804 4.14509 14.9266 4.84835 14.2233C5.55161 13.5201 6.50544 13.125 7.5 13.125V9.375C7.5 7.38588 8.29018 5.47822 9.6967 4.0717C11.1032 2.66518 13.0109 1.875 15 1.875C16.9891 1.875 18.8968 2.66518 20.3033 4.0717C21.7098 5.47822 22.5 7.38588 22.5 9.375V13.125ZM15 4.375C16.3261 4.375 17.5979 4.90178 18.5355 5.83947C19.4732 6.77715 20 8.04892 20 9.375V13.125H10V9.375C10 8.04892 10.5268 6.77715 11.4645 5.83947C12.4021 4.90178 13.6739 4.375 15 4.375ZM22.5 15.625H7.5C7.16848 15.625 6.85054 15.7567 6.61612 15.9911C6.3817 16.2255 6.25 16.5435 6.25 16.875V24.375C6.25 24.7065 6.3817 25.0245 6.61612 25.2589C6.85054 25.4933 7.16848 25.625 7.5 25.625H22.5C22.8315 25.625 23.1495 25.4933 23.3839 25.2589C23.6183 25.0245 23.75 24.7065 23.75 24.375V16.875C23.75 16.5435 23.6183 16.2255 23.3839 15.9911C23.1495 15.7567 22.8315 15.625 22.5 15.625Z" fill="black"/>
</svg>
