<svg width="60" height="60" viewBox="0 0 60 60" fill="none" xmlns="http://www.w3.org/2000/svg">
<path d="M30 5C27.3478 5 24.8043 6.05357 22.9289 7.92893C21.0536 9.8043 20 12.3478 20 15C20 17.6522 21.0536 20.1957 22.9289 22.0711C24.8043 23.9464 27.3478 25 30 25C32.6522 25 35.1957 23.9464 37.0711 22.0711C38.9464 20.1957 40 17.6522 40 15C40 12.3478 38.9464 9.8043 37.0711 7.92893C35.1957 6.05357 32.6522 5 30 5ZM42.5 30H17.5C15.5109 30 13.6032 30.7902 12.1967 32.1967C10.7902 33.6032 10 35.5109 10 37.5C10 43.08 12.295 47.55 16.06 50.575C19.765 53.55 24.735 55 30 55C35.265 55 40.235 53.55 43.94 50.575C47.7 47.55 50 43.08 50 37.5C50 35.5109 49.2098 33.6032 47.8033 32.1967C46.3968 30.7902 44.4891 30 42.5 30Z" fill="#828282"/>
</svg>
