<svg width="25" height="25" viewBox="0 0 25 25" fill="none" xmlns="http://www.w3.org/2000/svg">
<path d="M4.76607 4.76607C5.05908 4.47315 5.45644 4.30859 5.87076 4.30859C6.28508 4.30859 6.68244 4.47315 6.97545 4.76607L12.5004 10.2911L18.0254 4.76607C18.3201 4.48145 18.7148 4.32396 19.1245 4.32752C19.5342 4.33108 19.9261 4.49541 20.2158 4.78511C20.5055 5.07481 20.6698 5.4667 20.6734 5.87638C20.6769 6.28607 20.5194 6.68076 20.2348 6.97545L14.7098 12.5004L20.2348 18.0254C20.5194 18.3201 20.6769 18.7148 20.6734 19.1245C20.6698 19.5342 20.5055 19.9261 20.2158 20.2158C19.9261 20.5055 19.5342 20.6698 19.1245 20.6734C18.7148 20.6769 18.3201 20.5194 18.0254 20.2348L12.5004 14.7098L6.97545 20.2348C6.68076 20.5194 6.28607 20.6769 5.87638 20.6734C5.4667 20.6698 5.07481 20.5055 4.78511 20.2158C4.49541 19.9261 4.33108 19.5342 4.32752 19.1245C4.32396 18.7148 4.48145 18.3201 4.76607 18.0254L10.2911 12.5004L4.76607 6.97545C4.47315 6.68244 4.30859 6.28508 4.30859 5.87076C4.30859 5.45644 4.47315 5.05908 4.76607 4.76607Z" fill="black"/>
</svg>
