<svg width="35" height="35" viewBox="0 0 35 35" fill="none" xmlns="http://www.w3.org/2000/svg">
<path d="M8.7487 2.91602H21.8737C22.6472 2.91602 23.3891 3.22331 23.9361 3.77029C24.4831 4.31727 24.7904 5.05913 24.7904 5.83268V8.74935H21.8737V5.83268H8.7487V29.166H21.8737V26.2493H24.7904V29.166C24.7904 29.9396 24.4831 30.6814 23.9361 31.2284C23.3891 31.7754 22.6472 32.0827 21.8737 32.0827H8.7487C7.97515 32.0827 7.23328 31.7754 6.6863 31.2284C6.13932 30.6814 5.83203 29.9396 5.83203 29.166V5.83268C5.83203 5.05913 6.13932 4.31727 6.6863 3.77029C7.23328 3.22331 7.97515 2.91602 8.7487 2.91602Z" fill="black"/>
<path d="M23.4646 22.7361L25.5208 24.7923L32.8125 17.5007L25.5208 10.209L23.4646 12.2652L27.2271 16.0423H13.125V18.959H27.2271L23.4646 22.7361Z" fill="black"/>
</svg>
