<svg width="30" height="30" viewBox="0 0 30 30" fill="none" xmlns="http://www.w3.org/2000/svg">
<path d="M11.8148 22.9744L4.19608 10.7319C3.84275 10.1641 3.64769 9.51211 3.63112 8.84356C3.61454 8.17501 3.77705 7.51418 4.10181 6.92957C4.42656 6.34496 4.90175 5.85783 5.47812 5.51867C6.05449 5.1795 6.71107 5.00064 7.37983 5.00061L22.6173 5.00061C23.2861 5.00064 23.9427 5.1795 24.519 5.51867C25.0954 5.85783 25.5706 6.34496 25.8953 6.92957C26.2201 7.51418 26.3826 8.17501 26.366 8.84356C26.3495 9.51211 26.1544 10.1641 25.8011 10.7319L18.1823 22.9756C17.8456 23.5166 17.3766 23.9629 16.8196 24.2723C16.2625 24.5818 15.6358 24.7441 14.9986 24.7441C14.3614 24.7441 13.7346 24.5818 13.1776 24.2723C12.6205 23.9629 12.1515 23.5166 11.8148 22.9756V22.9744Z" fill="black"/>
</svg>
