<svg width="50" height="50" viewBox="0 0 50 50" fill="none" xmlns="http://www.w3.org/2000/svg">
<g clip-path="url(#clip0_276_2730)">
<path d="M29.1003 23.46C29.3909 23.0169 29.8432 22.7029 30.3622 22.5841C30.8812 22.4652 31.4263 22.5507 31.8831 22.8227C32.3398 23.0946 32.6726 23.5317 32.8113 24.0422C32.9501 24.5526 32.884 25.0965 32.6271 25.5596C29.5365 30.6761 27.6682 35.5474 26.7217 41.1846C26.3925 43.1372 23.7423 43.5335 22.8514 41.7627C18.6127 33.3476 14.9131 31.5993 8.88017 33.5968C8.62374 33.6816 8.353 33.7154 8.08342 33.6963C7.81383 33.6771 7.55067 33.6055 7.30897 33.4855C6.82084 33.243 6.44973 32.818 6.27729 32.3039C6.10484 31.7898 6.14519 31.2288 6.38945 30.7443C6.63371 30.2597 7.06187 29.8913 7.57975 29.7202C14.1641 27.5408 19.2176 28.9583 23.6353 35.0776L23.8226 35.3431L23.8452 35.2614C24.9193 31.5278 26.4522 28.0106 28.5221 24.4363L29.1003 23.46ZM37.0365 8.16992C36.2259 8.16992 35.4232 8.32841 34.6743 8.63635C33.9254 8.94428 33.2449 9.39562 32.6717 9.96461C32.0985 10.5336 31.6438 11.2091 31.3336 11.9525C31.0234 12.6959 30.8637 13.4927 30.8637 14.2974C30.8637 15.102 31.0234 15.8988 31.3336 16.6422C31.6438 17.3857 32.0985 18.0612 32.6717 18.6301C33.2449 19.1991 33.9254 19.6505 34.6743 19.9584C35.4232 20.2663 36.2259 20.4248 37.0365 20.4248C38.6737 20.4248 40.2438 19.7793 41.4014 18.6301C42.559 17.481 43.2094 15.9225 43.2094 14.2974C43.2094 12.6723 42.559 11.1137 41.4014 9.96461C40.2438 8.81549 38.6737 8.16992 37.0365 8.16992Z" fill="#D7D8E0"/>
</g>
<defs>
<clipPath id="clip0_276_2730">
<rect width="49.3827" height="49.0196" fill="white"/>
</clipPath>
</defs>
</svg>
