<svg width="50" height="50" viewBox="0 0 50 50" fill="none" xmlns="http://www.w3.org/2000/svg">
<path d="M10.418 37.5V45.3458L13.5742 43.4521L23.4951 37.5H33.3346C35.6326 37.5 37.5013 35.6312 37.5013 33.3333V16.6667C37.5013 14.3687 35.6326 12.5 33.3346 12.5H8.33464C6.03672 12.5 4.16797 14.3687 4.16797 16.6667V33.3333C4.16797 35.6312 6.03672 37.5 8.33464 37.5H10.418ZM8.33464 16.6667H33.3346V33.3333H22.3409L14.5846 37.9875V33.3333H8.33464V16.6667Z" fill="black"/>
<path d="M41.6667 4.1665H16.6667C14.3687 4.1665 12.5 6.03525 12.5 8.33317H37.5C39.7979 8.33317 41.6667 10.2019 41.6667 12.4998V29.1665C43.9646 29.1665 45.8333 27.2978 45.8333 24.9998V8.33317C45.8333 6.03525 43.9646 4.1665 41.6667 4.1665Z" fill="black"/>
</svg>
