<svg width="50" height="50" viewBox="0 0 50 50" fill="none" xmlns="http://www.w3.org/2000/svg">
<path d="M23.4375 3.125V25H26.5625V3.125H23.4375Z" fill="black"/>
<path d="M9.37613 27.5374C9.37537 24.7467 10.1222 22.0067 11.539 19.6023C12.9558 17.198 14.9908 15.2171 17.4324 13.8655L15.9168 11.1343C12.2934 13.1407 9.43636 16.2905 7.79168 20.0917C6.14699 23.893 5.80721 28.1318 6.82539 32.1465C7.84357 36.1613 10.1624 39.7259 13.4199 42.2839C16.6774 44.8419 20.6901 46.2493 24.8318 46.2865C28.9734 46.3236 33.0108 44.9884 36.3137 42.4893C39.6165 39.9901 41.9989 36.4677 43.089 32.4719C44.179 28.4761 43.9154 24.2318 42.3392 20.4017C40.763 16.5715 37.9629 13.3711 34.3761 11.2999L32.8105 14.003C35.1862 15.3739 37.1592 17.346 38.5311 19.7211C39.9031 22.0963 40.6256 24.7907 40.6261 27.5335C40.6266 30.2764 39.9051 32.9711 38.5341 35.3467C37.163 37.7224 35.1908 39.6952 32.8156 41.067C30.4404 42.4388 27.7459 43.1611 25.0031 43.1615C22.2602 43.1618 19.5655 42.4401 17.19 41.0689C14.8145 39.6977 12.8417 37.7254 11.4701 35.3501C10.0985 32.9748 9.37629 30.2803 9.37613 27.5374Z" fill="black"/>
</svg>
