<svg width="50" height="50" viewBox="0 0 50 50" fill="none" xmlns="http://www.w3.org/2000/svg">
<g clip-path="url(#clip0_448_2689)">
<path d="M24.9832 26.4325C26.4605 26.4325 27.9234 26.1415 29.2883 25.5761C30.6533 25.0108 31.8934 24.1821 32.9381 23.1375C33.9828 22.0928 34.8114 20.8526 35.3768 19.4877C35.9422 18.1228 36.2332 16.6599 36.2332 15.1825C36.2332 13.7051 35.9422 12.2422 35.3768 10.8773C34.8114 9.5124 33.9828 8.27221 32.9381 7.22755C31.8934 6.18289 30.6533 5.35422 29.2883 4.78886C27.9234 4.22349 26.4605 3.9325 24.9832 3.9325C21.9995 3.9325 19.138 5.11777 17.0282 7.22755C14.9184 9.33733 13.7332 12.1988 13.7332 15.1825C13.7332 18.1662 14.9184 21.0277 17.0282 23.1375C19.138 25.2472 21.9995 26.4325 24.9832 26.4325ZM25.0007 7.96368e-07C28.2937 -0.00107188 31.4955 1.08152 34.1122 3.08074C36.7289 5.07997 38.615 7.88471 39.4794 11.0622C40.3439 14.2397 40.1387 17.6134 38.8956 20.6628C37.6524 23.7121 35.4403 26.2676 32.6007 27.935C41.8207 30.71 48.7457 38.48 49.9882 48.13C50.1057 49.0475 49.4232 49.88 48.4632 49.9925C47.5057 50.105 46.6307 49.455 46.5132 48.5375C45.1632 38.0625 36.0907 30.175 25.0882 30.175C14.0257 30.175 4.83566 38.0775 3.48816 48.5375C3.37066 49.455 2.49566 50.105 1.53816 49.9925C0.578158 49.88 -0.104342 49.0475 0.0131581 48.13C1.25316 38.52 8.21566 30.76 17.4507 27.96C14.6024 26.3002 12.3802 23.7483 11.1278 20.6988C9.87529 17.6494 9.6623 14.2723 10.5217 11.0896C11.3811 7.90699 13.265 5.09611 15.8822 3.09158C18.4994 1.08705 21.704 0.000523155 25.0007 7.96368e-07Z" fill="black"/>
</g>
<defs>
<clipPath id="clip0_448_2689">
<rect width="50" height="50" fill="white"/>
</clipPath>
</defs>
</svg>
