<svg width="50" height="50" viewBox="0 0 50 50" fill="none" xmlns="http://www.w3.org/2000/svg">
<path d="M14.8667 45.6049C16.0755 46.9806 17.6157 48.091 19.3712 48.8524C21.1266 49.6137 23.0514 50.0061 25 49.9999C26.9486 50.0061 28.8734 49.6137 30.6288 48.8524C32.3843 48.091 33.9245 46.9806 35.1333 45.6049C28.4085 46.4253 21.5915 46.4253 14.8667 45.6049ZM43.7499 17.5V19.26C43.7499 21.3725 44.4165 23.4375 45.6721 25.195L48.7498 29.5025C51.5581 33.4374 49.4137 38.7849 44.5276 40.0274C31.7604 43.2823 18.2396 43.2823 5.47236 40.0274C0.586279 38.7849 -1.55815 33.4374 1.25016 29.5025L4.32792 25.195C5.58784 23.4234 6.25598 21.3634 6.25291 19.26V17.5C6.25291 7.83499 14.6473 0 25 0C35.3527 0 43.7499 7.83499 43.7499 17.5Z" fill="white"/>
</svg>
