<svg width="30" height="30" viewBox="0 0 30 30" fill="none" xmlns="http://www.w3.org/2000/svg">
<path d="M26.4003 19.4449C25.3831 17.6953 24.8429 15.184 24.8429 12.1875C24.8429 9.57678 23.8058 7.07298 21.9597 5.22692C20.1136 3.38086 17.6098 2.34375 14.9991 2.34375C12.3884 2.34375 9.8846 3.38086 8.03853 5.22692C6.19247 7.07298 5.15537 9.57678 5.15537 12.1875C5.15537 15.1852 4.61748 17.6953 3.60029 19.4449C3.39273 19.8018 3.2827 20.207 3.28126 20.6198C3.27982 21.0326 3.38702 21.4386 3.59209 21.7969C3.79586 22.1554 4.09161 22.453 4.44883 22.659C4.80604 22.865 5.21177 22.9719 5.62412 22.9688H9.86396C9.98024 24.2503 10.5716 25.4421 11.5217 26.31C12.4719 27.1779 13.7123 27.6591 14.9991 27.6591C16.286 27.6591 17.5263 27.1779 18.4765 26.31C19.4267 25.4421 20.018 24.2503 20.1343 22.9688H24.3741C24.7859 22.9713 25.1909 22.8641 25.5474 22.6581C25.9039 22.4521 26.1992 22.1548 26.4026 21.7969C26.6086 21.4391 26.7168 21.0334 26.7164 20.6206C26.716 20.2078 26.607 19.8023 26.4003 19.4449ZM14.9991 24.8438C14.4588 24.8439 13.9351 24.6573 13.5165 24.3156C13.098 23.9739 12.8103 23.4981 12.7022 22.9688H17.296C17.1879 23.4981 16.9003 23.9739 16.4817 24.3156C16.0632 24.6573 15.5394 24.8439 14.9991 24.8438ZM6.40459 20.1562C7.4417 18.0469 7.96787 15.368 7.96787 12.1875C7.96787 10.3227 8.70866 8.53427 10.0273 7.21566C11.3459 5.89704 13.1343 5.15625 14.9991 5.15625C16.8639 5.15625 18.6523 5.89704 19.971 7.21566C21.2896 8.53427 22.0304 10.3227 22.0304 12.1875C22.0304 15.3668 22.5554 18.0469 23.5925 20.1562H6.40459Z" fill="black"/>
</svg>
