<svg width="30" height="30" viewBox="0 0 30 30" fill="none" xmlns="http://www.w3.org/2000/svg">
<path d="M22.5 22.5H22.3096C22.085 21.4062 21.6895 20.4004 21.123 19.4824C20.5566 18.5645 19.8682 17.7734 19.0576 17.1094C18.2471 16.4453 17.334 15.9277 16.3184 15.5566C15.3027 15.1855 14.2383 15 13.125 15C12.2656 15 11.4355 15.1123 10.6348 15.3369C9.83398 15.5615 9.08691 15.874 8.39355 16.2744C7.7002 16.6748 7.07031 17.1631 6.50391 17.7393C5.9375 18.3154 5.44922 18.9502 5.03906 19.6436C4.62891 20.3369 4.31152 21.084 4.08691 21.8848C3.8623 22.6855 3.75 23.5156 3.75 24.375H1.875C1.875 23.2031 2.0459 22.0752 2.3877 20.9912C2.72949 19.9072 3.22266 18.9062 3.86719 17.9883C4.51172 17.0703 5.27344 16.2549 6.15234 15.542C7.03125 14.8291 8.02734 14.2676 9.14062 13.8574C8.03711 13.1348 7.17773 12.2266 6.5625 11.1328C5.94727 10.0391 5.63477 8.82812 5.625 7.5C5.625 6.46484 5.82031 5.49316 6.21094 4.58496C6.60156 3.67676 7.13379 2.88086 7.80762 2.19727C8.48145 1.51367 9.27734 0.976562 10.1953 0.585938C11.1133 0.195313 12.0898 0 13.125 0C14.1602 0 15.1318 0.195313 16.04 0.585938C16.9482 0.976562 17.7441 1.50879 18.4277 2.18262C19.1113 2.85645 19.6484 3.65234 20.0391 4.57031C20.4297 5.48828 20.625 6.46484 20.625 7.5C20.625 8.14453 20.5469 8.77441 20.3906 9.38965C20.2344 10.0049 20 10.5859 19.6875 11.1328C19.375 11.6797 19.0088 12.1826 18.5889 12.6416C18.1689 13.1006 17.6758 13.5059 17.1094 13.8574C18.2031 14.2773 19.209 14.8535 20.127 15.5859C21.0449 16.3184 21.8359 17.1777 22.5 18.1641V22.5ZM7.5 7.5C7.5 8.28125 7.64648 9.00879 7.93945 9.68262C8.23242 10.3564 8.63281 10.9521 9.14062 11.4697C9.64844 11.9873 10.2441 12.3926 10.9277 12.6855C11.6113 12.9785 12.3438 13.125 13.125 13.125C13.8965 13.125 14.624 12.9785 15.3076 12.6855C15.9912 12.3926 16.5869 11.9922 17.0947 11.4844C17.6025 10.9766 18.0078 10.3809 18.3105 9.69727C18.6133 9.01367 18.7598 8.28125 18.75 7.5C18.75 6.72852 18.6035 6.00098 18.3105 5.31738C18.0176 4.63379 17.6172 4.03809 17.1094 3.53027C16.6016 3.02246 16.001 2.61719 15.3076 2.31445C14.6143 2.01172 13.8867 1.86523 13.125 1.875C12.3438 1.875 11.6162 2.02148 10.9424 2.31445C10.2686 2.60742 9.67285 3.00781 9.15527 3.51562C8.6377 4.02344 8.23242 4.62402 7.93945 5.31738C7.64648 6.01074 7.5 6.73828 7.5 7.5ZM26.25 24.375H30V26.25H26.25V30H24.375V26.25H20.625V24.375H24.375V20.625H26.25V24.375Z" fill="black"/>
</svg>
