<svg width="26" height="26" viewBox="0 0 26 26" fill="none" xmlns="http://www.w3.org/2000/svg">
<path d="M9.5 8.25L17 18.25M17 8.25L9.5 18.25M13.25 24.5C16.2337 24.5 19.0952 23.3147 21.205 21.205C23.3147 19.0952 24.5 16.2337 24.5 13.25C24.5 10.2663 23.3147 7.40483 21.205 5.29505C19.0952 3.18526 16.2337 2 13.25 2C10.2663 2 7.40483 3.18526 5.29505 5.29505C3.18526 7.40483 2 10.2663 2 13.25C2 16.2337 3.18526 19.0952 5.29505 21.205C7.40483 23.3147 10.2663 24.5 13.25 24.5Z" stroke="black" stroke-width="2.5" stroke-linecap="round" stroke-linejoin="round"/>
</svg>
