<svg width="60" height="60" viewBox="0 0 60 60" fill="none" xmlns="http://www.w3.org/2000/svg">
<path d="M30.0012 27.75C23.1912 27.75 21.8113 17.43 21.8113 17.43C21.0013 12.06 23.4612 6 29.9113 6C36.3913 6 38.8513 12.06 38.0413 17.43C38.0413 17.43 36.8112 27.75 30.0012 27.75ZM30.0012 35.46L38.1613 30C45.3313 30 51.7212 36.99 51.7212 43.59V51.06C51.7212 51.06 40.7712 54.45 30.0012 54.45C19.0512 54.45 8.28125 51.06 8.28125 51.06V43.59C8.28125 36.84 14.1013 30.15 21.6913 30.15L30.0012 35.46Z" fill="black"/>
</svg>
