<svg width="60" height="60" viewBox="0 0 60 60" fill="none" xmlns="http://www.w3.org/2000/svg">
<path d="M30 2.5L7.5 12.5V27.5C7.5 41.375 17.1 54.35 30 57.5C42.9 54.35 52.5 41.375 52.5 27.5V12.5L30 2.5ZM30 12.25C31.4834 12.25 32.9334 12.6899 34.1668 13.514C35.4001 14.3381 36.3614 15.5094 36.9291 16.8799C37.4968 18.2503 37.6453 19.7583 37.3559 21.2132C37.0665 22.668 36.3522 24.0044 35.3033 25.0533C34.2544 26.1022 32.918 26.8165 31.4632 27.1059C30.0083 27.3953 28.5003 27.2468 27.1299 26.6791C25.7594 26.1114 24.5881 25.1501 23.764 23.9168C22.9399 22.6834 22.5 21.2334 22.5 19.75C22.5 17.7609 23.2902 15.8532 24.6967 14.4467C26.1032 13.0402 28.0109 12.25 30 12.25ZM30 32C35 32 45 34.725 45 39.7C43.3581 42.1753 41.1291 44.2058 38.5118 45.6104C35.8946 47.015 32.9704 47.7501 30 47.7501C27.0296 47.7501 24.1054 47.015 21.4882 45.6104C18.8709 44.2058 16.6419 42.1753 15 39.7C15 34.725 25 32 30 32Z" fill="#033383"/>
</svg>
