<svg width="60" height="60" viewBox="0 0 60 60" fill="none" xmlns="http://www.w3.org/2000/svg">
<path fill-rule="evenodd" clip-rule="evenodd" d="M22.4982 8.05797C22.4981 7.49175 22.6902 6.94226 23.0431 6.49945C23.396 6.05664 23.8887 5.74674 24.4407 5.62047C28.0982 4.78759 31.8964 4.78929 35.5532 5.62547C36.1056 5.75125 36.5989 6.06094 36.9523 6.5038C37.3057 6.94665 37.4982 7.49641 37.4982 8.06297V12.6805C37.4982 13.1193 37.6137 13.5504 37.8331 13.9304C38.0526 14.3105 38.3682 14.6261 38.7482 14.8455C39.1283 15.0649 39.5594 15.1804 39.9982 15.1804C40.437 15.1804 40.8681 15.0649 41.2482 14.8455L45.2507 12.533C45.7417 12.2495 46.3145 12.1414 46.8751 12.2264C47.4356 12.3113 47.9507 12.5843 48.3357 13.0005C50.8801 15.7534 52.7771 19.0402 53.8882 22.6205C54.056 23.1619 54.0348 23.7443 53.8282 24.2722C53.6215 24.8 53.2415 25.2419 52.7507 25.5255L48.7482 27.8355C48.3682 28.0549 48.0526 28.3705 47.8332 28.7505C47.6138 29.1306 47.4983 29.5617 47.4983 30.0005C47.4983 30.4393 47.6138 30.8704 47.8332 31.2504C48.0526 31.6305 48.3682 31.946 48.7482 32.1655L52.7482 34.473C53.2385 34.7564 53.6181 35.1979 53.8247 35.7252C54.0314 36.2525 54.0529 36.8344 53.8857 37.3755C52.7822 40.9607 50.8852 44.2513 48.3357 47.003C47.9504 47.4188 47.4352 47.6913 46.8746 47.7757C46.3141 47.8602 45.7414 47.7517 45.2507 47.468L41.2482 45.1555C40.8681 44.9361 40.437 44.8205 39.9982 44.8205C39.5594 44.8205 39.1283 44.936 38.7482 45.1555C38.3682 45.3749 38.0526 45.6905 37.8331 46.0705C37.6137 46.4505 37.4982 46.8816 37.4982 47.3205V51.9455C37.4976 52.5116 37.3049 53.0608 36.9515 53.5031C36.5982 53.9455 36.1052 54.2548 35.5532 54.3805C31.8956 55.2133 28.0975 55.2116 24.4407 54.3755C23.8887 54.2492 23.396 53.9393 23.0431 53.4965C22.6902 53.0537 22.4981 52.5042 22.4982 51.938V47.3205C22.4982 46.8816 22.3826 46.4505 22.1632 46.0705C21.9438 45.6905 21.6282 45.3749 21.2481 45.1555C20.8681 44.936 20.437 44.8205 19.9982 44.8205C19.5593 44.8205 19.1282 44.9361 18.7482 45.1555L14.7457 47.468C14.2546 47.7514 13.6819 47.8595 13.1213 47.7746C12.5607 47.6896 12.0457 47.4167 11.6607 47.0005C10.3923 45.6286 9.28123 44.1192 8.34818 42.5005C7.41303 40.8826 6.66169 39.1653 6.10818 37.3805C5.94035 36.839 5.96151 36.2566 6.16819 35.7288C6.37488 35.2009 6.75481 34.759 7.24568 34.4755L11.2457 32.1655C11.6257 31.946 11.9413 31.6305 12.1607 31.2504C12.3801 30.8704 12.4956 30.4393 12.4956 30.0005C12.4956 29.5617 12.3801 29.1306 12.1607 28.7505C11.9413 28.3705 11.6257 28.0549 11.2457 27.8355L7.25068 25.528C6.75989 25.2449 6.3798 24.8036 6.17268 24.2762C5.96556 23.7489 5.9437 23.1669 6.11068 22.6255C7.21452 19.0411 9.11146 15.7514 11.6607 13.0005C12.0455 12.5849 12.5601 12.3123 13.1201 12.2273C13.6801 12.1424 14.2524 12.2502 14.7432 12.533L18.7482 14.8455C19.1282 15.0649 19.5593 15.1804 19.9982 15.1804C20.437 15.1804 20.8681 15.0649 21.2481 14.8455C21.6282 14.6261 21.9438 14.3105 22.1632 13.9304C22.3826 13.5504 22.4982 13.1193 22.4982 12.6805V8.05547V8.05797ZM29.9982 37.5005C31.9873 37.5005 33.895 36.7103 35.3015 35.3038C36.708 33.8973 37.4982 31.9896 37.4982 30.0005C37.4982 28.0113 36.708 26.1037 35.3015 24.6972C33.895 23.2906 31.9873 22.5005 29.9982 22.5005C28.0091 22.5005 26.1014 23.2906 24.6949 24.6972C23.2884 26.1037 22.4982 28.0113 22.4982 30.0005C22.4982 31.9896 23.2884 33.8973 24.6949 35.3038C26.1014 36.7103 28.0091 37.5005 29.9982 37.5005Z" fill="black"/>
</svg>
