<svg width="60" height="60" viewBox="0 0 60 60" fill="none" xmlns="http://www.w3.org/2000/svg">
<path fill-rule="evenodd" clip-rule="evenodd" d="M35.6983 5.38C34.7733 5 33.5983 5 31.2508 5C28.9033 5 27.7308 5 26.8033 5.38C25.5719 5.88553 24.5917 6.85941 24.0783 8.0875C23.8433 8.645 23.7533 9.2975 23.7158 10.245C23.6991 10.9315 23.5076 11.6024 23.1594 12.1943C22.8112 12.7862 22.3178 13.2795 21.7258 13.6275C21.1226 13.9628 20.4446 14.1404 19.7546 14.1439C19.0646 14.1474 18.3848 13.9766 17.7783 13.6475C16.9333 13.2025 16.3208 12.9575 15.7158 12.8775C14.3922 12.7037 13.0535 13.0595 11.9908 13.8675C11.1958 14.4725 10.6083 15.4825 9.43579 17.5C8.26079 19.5175 7.67579 20.525 7.54329 21.5125C7.36829 22.8275 7.72829 24.1575 8.54329 25.21C8.91329 25.69 9.43579 26.0925 10.2433 26.5975C11.4358 27.34 12.2008 28.605 12.2008 30C12.2008 31.395 11.4358 32.66 10.2458 33.4C9.43579 33.9075 8.91329 34.31 8.54079 34.79C8.1385 35.3099 7.84321 35.9043 7.672 36.5389C7.50079 37.1736 7.45704 37.8359 7.54329 38.4875C7.67579 39.4725 8.26079 40.4825 9.43579 42.5C10.6108 44.5175 11.1958 45.525 11.9908 46.1325C13.0508 46.94 14.3908 47.295 15.7158 47.1225C16.3208 47.0425 16.9333 46.7975 17.7783 46.3525C18.3851 46.0229 19.0653 45.852 19.7559 45.8555C20.4464 45.859 21.1248 46.0368 21.7283 46.3725C22.9433 47.0725 23.6633 48.36 23.7158 49.755C23.7533 50.705 23.8433 51.355 24.0783 51.9125C24.5883 53.1375 25.5683 54.1125 26.8033 54.62C27.7283 55 28.9033 55 31.2508 55C33.5983 55 34.7733 55 35.6983 54.62C36.9297 54.1145 37.9098 53.1406 38.4233 51.9125C38.6583 51.355 38.7483 50.705 38.7858 49.755C38.8358 48.36 39.5583 47.07 40.7758 46.3725C41.3789 46.0372 42.0569 45.8596 42.747 45.8561C43.437 45.8526 44.1168 46.0234 44.7233 46.3525C45.5683 46.7975 46.1808 47.0425 46.7858 47.1225C48.1108 47.2975 49.4508 46.94 50.5108 46.1325C51.3058 45.5275 51.8933 44.5175 53.0658 42.5C54.2408 40.4825 54.8258 39.475 54.9583 38.4875C55.0442 37.8357 55 37.1733 54.8284 36.5387C54.6568 35.904 54.361 35.3097 53.9583 34.79C53.5883 34.31 53.0658 33.9075 52.2583 33.4025C51.0658 32.66 50.3008 31.395 50.3008 30C50.3008 28.605 51.0658 27.34 52.2558 26.6C53.0658 26.0925 53.5883 25.69 53.9608 25.21C54.3631 24.6901 54.6584 24.0957 54.8296 23.4611C55.0008 22.8264 55.0445 22.1641 54.9583 21.5125C54.8258 20.5275 54.2408 19.5175 53.0658 17.5C51.8908 15.4825 51.3058 14.475 50.5108 13.8675C49.4481 13.0595 48.1094 12.7037 46.7858 12.8775C46.1808 12.9575 45.5683 13.2025 44.7233 13.6475C44.1165 13.9771 43.4362 14.148 42.7457 14.1445C42.0552 14.141 41.3767 13.9632 40.7733 13.6275C40.1818 13.2792 39.6889 12.7857 39.3411 12.1939C38.9933 11.602 38.8022 10.9313 38.7858 10.245C38.7483 9.295 38.6583 8.645 38.4233 8.0875C38.1692 7.47934 37.7977 6.92721 37.3302 6.46264C36.8626 5.99808 36.3081 5.63019 35.6983 5.38ZM31.2508 37.5C35.4258 37.5 38.8083 34.1425 38.8083 30C38.8083 25.8575 35.4233 22.5 31.2508 22.5C27.0758 22.5 23.6933 25.8575 23.6933 30C23.6933 34.1425 27.0783 37.5 31.2508 37.5Z" fill="#5C5D61"/>
</svg>
