<svg width="60" height="60" viewBox="0 0 60 60" fill="none" xmlns="http://www.w3.org/2000/svg">
<path d="M10 50H50V55H10V50ZM52.5 12.5C51.837 12.5 51.2011 12.7634 50.7322 13.2322C50.2634 13.7011 50 14.337 50 15C50.0004 15.2843 50.0546 15.5659 50.16 15.83C50.2631 16.0853 50.4038 16.3238 50.5775 16.5375L45.2775 20.7675L39.985 25L35.6 17.3175L31.22 9.6375C31.5958 9.42415 31.9127 9.12093 32.1425 8.755C32.377 8.37847 32.5009 7.94358 32.5 7.5C32.5 6.83696 32.2366 6.20107 31.7678 5.73223C31.2989 5.26339 30.663 5 30 5C29.337 5 28.7011 5.26339 28.2322 5.73223C27.7634 6.20107 27.5 6.83696 27.5 7.5C27.4991 7.94358 27.623 8.37847 27.8575 8.755C28.0874 9.12086 28.4043 9.42406 28.78 9.6375L24.3925 17.3175L20.005 25L14.715 20.77L9.4225 16.5375C9.59618 16.3238 9.73691 16.0853 9.84 15.83C9.94535 15.5659 9.99964 15.2843 10 15C10 14.5055 9.85338 14.0222 9.57868 13.6111C9.30397 13.2 8.91353 12.8795 8.45671 12.6903C7.99989 12.5011 7.49723 12.4516 7.01228 12.548C6.52732 12.6445 6.08187 12.8826 5.73223 13.2322C5.3826 13.5819 5.1445 14.0273 5.04804 14.5123C4.95157 14.9972 5.00108 15.4999 5.1903 15.9567C5.37952 16.4135 5.69995 16.804 6.11108 17.0787C6.5222 17.3534 7.00555 17.5 7.5 17.5C7.53482 17.4991 7.56934 17.4932 7.6025 17.4825C7.63575 17.4708 7.67009 17.4624 7.705 17.4575L8.8525 31.23L10 45H50L51.1475 31.23L52.295 17.4575C52.3291 17.4626 52.3626 17.4709 52.395 17.4825C52.429 17.4934 52.4643 17.4993 52.5 17.5C53.163 17.5 53.7989 17.2366 54.2678 16.7678C54.7366 16.2989 55 15.663 55 15C55 14.337 54.7366 13.7011 54.2678 13.2322C53.7989 12.7634 53.163 12.5 52.5 12.5Z" fill="#000395"/>
</svg>
