<svg width="35" height="35" viewBox="0 0 35 35" fill="none" xmlns="http://www.w3.org/2000/svg">
<path d="M25.0534 11.666L9.94505 11.666C8.79296 11.666 8.09296 12.9348 8.72004 13.9119L16.2742 25.7827C16.4057 25.9905 16.5877 26.1617 16.8031 26.2803C17.0186 26.3989 17.2606 26.4612 17.5065 26.4612C17.7525 26.4612 17.9944 26.3989 18.2099 26.2803C18.4253 26.1617 18.6073 25.9905 18.7388 25.7827L26.2784 13.9119C26.4206 13.6919 26.5009 13.4376 26.5107 13.1758C26.5205 12.914 26.4594 12.6545 26.334 12.4245C26.2086 12.1945 26.0234 12.0027 25.798 11.8692C25.5726 11.7357 25.3153 11.6655 25.0534 11.666Z" fill="black"/>
</svg>
