<svg width="210" height="146" viewBox="0 0 210 146" fill="none" xmlns="http://www.w3.org/2000/svg">
<rect width="210" height="100" rx="50" fill="black"/>
<rect x="35" y="36" width="6" height="30" rx="3" fill="#F7F8FA"/>
<rect x="23" y="48" width="30" height="6" rx="3" fill="#F7F8FA"/>
<rect x="65" y="20" width="80" height="60" rx="5" fill="#F7F8FA"/>
<rect x="173" y="37" width="10" height="6" rx="3" fill="#F7F8FA"/>
<rect x="163" y="47" width="10" height="6" rx="3" fill="#F7F8FA"/>
<rect x="173" y="56" width="10" height="6" rx="3" fill="#F7F8FA"/>
<rect x="183" y="47" width="10" height="6" rx="3" fill="#F7F8FA"/>
<path d="M16.6368 116.45C19.3768 116.45 21.3568 117.11 22.5768 118.43C23.8168 119.75 24.1768 121.63 23.6568 124.07C23.3968 125.29 22.9668 126.39 22.3668 127.37C21.7868 128.33 21.0468 129.15 20.1468 129.83C19.2668 130.51 18.2468 131.04 17.0868 131.42C15.9468 131.78 14.6868 131.96 13.3068 131.96H7.66676L5.98675 140H0.736755L5.71676 116.45H16.6368ZM13.9368 127.91C15.1368 127.91 16.1268 127.57 16.9068 126.89C17.6868 126.19 18.1868 125.3 18.4068 124.22C18.6468 123.14 18.5268 122.25 18.0468 121.55C17.5668 120.85 16.7268 120.5 15.5268 120.5H10.1268L8.53676 127.91H13.9368ZM44.2053 128.21C44.4853 126.91 44.5553 125.75 44.4154 124.73C44.2954 123.71 43.9954 122.86 43.5153 122.18C43.0553 121.48 42.4353 120.95 41.6554 120.59C40.8954 120.23 40.0054 120.05 38.9854 120.05C37.9653 120.05 36.9853 120.23 36.0453 120.59C35.1253 120.95 34.2853 121.48 33.5254 122.18C32.7653 122.86 32.1053 123.71 31.5453 124.73C30.9853 125.75 30.5653 126.91 30.2853 128.21C30.0053 129.51 29.9253 130.67 30.0453 131.69C30.1853 132.71 30.4853 133.57 30.9453 134.27C31.4253 134.97 32.0453 135.5 32.8053 135.86C33.5853 136.22 34.4853 136.4 35.5053 136.4C37.6653 136.4 39.5154 135.69 41.0554 134.27C42.5953 132.85 43.6453 130.83 44.2053 128.21ZM49.4553 128.21C49.0554 130.13 48.4254 131.85 47.5654 133.37C46.7254 134.89 45.6754 136.18 44.4154 137.24C43.1754 138.28 41.7354 139.08 40.0954 139.64C38.4554 140.18 36.6453 140.45 34.6653 140.45C32.9053 140.45 31.3353 140.16 29.9553 139.58C28.5953 138.98 27.4853 138.15 26.6253 137.09C25.7653 136.01 25.1853 134.72 24.8853 133.22C24.5853 131.72 24.6353 130.05 25.0353 128.21C25.4553 126.29 26.0853 124.58 26.9253 123.08C27.7853 121.56 28.8353 120.28 30.0753 119.24C31.3353 118.18 32.7853 117.38 34.4254 116.84C36.0653 116.28 37.8753 116 39.8554 116C41.6954 116 43.2954 116.29 44.6554 116.87C46.0354 117.43 47.1454 118.25 47.9854 119.33C48.8254 120.39 49.3754 121.67 49.6354 123.17C49.8954 124.67 49.8354 126.35 49.4553 128.21ZM66.8802 131.81L70.1202 116.45H75.3402L70.3602 140H66.3102L59.2602 126.11L58.8702 124.64L55.6302 140H50.4102L55.3902 116.45H59.4402L66.4902 130.34L66.8802 131.81ZM100.321 128.57C99.9408 130.41 99.3408 132.06 98.5208 133.52C97.7208 134.98 96.7108 136.23 95.4908 137.27C94.2908 138.29 92.8708 139.08 91.2308 139.64C89.6108 140.18 87.8008 140.45 85.8008 140.45C84.0008 140.45 82.4108 140.17 81.0308 139.61C79.6708 139.05 78.5708 138.25 77.7308 137.21C76.8908 136.17 76.3308 134.89 76.0508 133.37C75.7908 131.85 75.8708 130.13 76.2908 128.21C76.7108 126.29 77.3708 124.57 78.2708 123.05C79.1708 121.53 80.2608 120.25 81.5408 119.21C82.8408 118.17 84.2908 117.38 85.8908 116.84C87.4908 116.28 89.2008 116 91.0208 116C92.5408 116 93.9108 116.19 95.1308 116.57C96.3508 116.95 97.3908 117.51 98.2508 118.25C99.1108 118.97 99.7708 119.86 100.231 120.92C100.691 121.98 100.921 123.18 100.921 124.52H95.6108C95.4908 123.06 94.9508 121.95 93.9908 121.19C93.0508 120.43 91.7708 120.05 90.1508 120.05C89.1508 120.05 88.1908 120.24 87.2708 120.62C86.3708 120.98 85.5408 121.51 84.7808 122.21C84.0208 122.89 83.3608 123.74 82.8008 124.76C82.2408 125.78 81.8208 126.93 81.5408 128.21C81.2608 129.51 81.1808 130.67 81.3008 131.69C81.4208 132.69 81.7008 133.54 82.1408 134.24C82.6008 134.94 83.2108 135.48 83.9708 135.86C84.7508 136.22 85.6508 136.4 86.6708 136.4C87.7908 136.4 88.7908 136.26 89.6708 135.98C90.5508 135.7 91.3108 135.31 91.9508 134.81C92.6108 134.29 93.1608 133.68 93.6008 132.98C94.0408 132.28 94.3908 131.52 94.6508 130.7H87.2708L88.1108 126.8H100.711L100.321 128.57ZM135.229 128.57C134.849 130.41 134.249 132.06 133.429 133.52C132.629 134.98 131.619 136.23 130.399 137.27C129.199 138.29 127.779 139.08 126.139 139.64C124.519 140.18 122.709 140.45 120.709 140.45C118.909 140.45 117.319 140.17 115.939 139.61C114.579 139.05 113.479 138.25 112.639 137.21C111.799 136.17 111.239 134.89 110.959 133.37C110.699 131.85 110.779 130.13 111.199 128.21C111.619 126.29 112.279 124.57 113.179 123.05C114.079 121.53 115.169 120.25 116.449 119.21C117.749 118.17 119.199 117.38 120.799 116.84C122.399 116.28 124.109 116 125.929 116C127.449 116 128.819 116.19 130.039 116.57C131.259 116.95 132.299 117.51 133.159 118.25C134.019 118.97 134.679 119.86 135.139 120.92C135.599 121.98 135.829 123.18 135.829 124.52H130.519C130.399 123.06 129.859 121.95 128.899 121.19C127.959 120.43 126.679 120.05 125.059 120.05C124.059 120.05 123.099 120.24 122.179 120.62C121.279 120.98 120.449 121.51 119.689 122.21C118.929 122.89 118.269 123.74 117.709 124.76C117.149 125.78 116.729 126.93 116.449 128.21C116.169 129.51 116.089 130.67 116.209 131.69C116.329 132.69 116.609 133.54 117.049 134.24C117.509 134.94 118.119 135.48 118.879 135.86C119.659 136.22 120.559 136.4 121.579 136.4C122.699 136.4 123.699 136.26 124.579 135.98C125.459 135.7 126.219 135.31 126.859 134.81C127.519 134.29 128.069 133.68 128.509 132.98C128.949 132.28 129.299 131.52 129.559 130.7H122.179L123.019 126.8H135.619L135.229 128.57ZM150.289 135.08H141.229L138.529 140H133.279L147.019 116.45H152.419L156.199 140H150.949L150.289 135.08ZM147.949 122.96L143.449 131.09H149.779L148.729 122.96L148.639 121.58L147.949 122.96ZM166.975 126.02L166.885 124.19L163.525 140H158.305L163.285 116.45H169.255L172.045 129.98L172.165 131.69L173.005 129.98L181.555 116.45H187.525L182.545 140H177.325L180.685 124.19L179.815 126.02L172.735 137.48H169.135L166.975 126.02ZM191.432 116.45H209.552L208.712 120.5H195.842L194.642 126.08H206.912L206.072 130.1H193.802L192.542 135.95H205.712L204.872 140H186.452L191.432 116.45Z" fill="black"/>
</svg>
