<svg width="30" height="30" viewBox="0 0 30 30" fill="none" xmlns="http://www.w3.org/2000/svg">
<g clip-path="url(#clip0_106_563)">
<path d="M13.75 2.5C12.0924 2.5 10.5027 3.15848 9.33058 4.33058C8.15848 5.50269 7.5 7.0924 7.5 8.75C7.5 10.4076 8.15848 11.9973 9.33058 13.1694C10.5027 14.3415 12.0924 15 13.75 15C15.4076 15 16.9973 14.3415 18.1694 13.1694C19.3415 11.9973 20 10.4076 20 8.75C20 7.0924 19.3415 5.50269 18.1694 4.33058C16.9973 3.15848 15.4076 2.5 13.75 2.5ZM13.75 16.25C10.7563 16.25 8.03125 17.1175 6.0275 18.3387C5.0275 18.9513 4.1725 19.67 3.555 20.4513C2.9475 21.2213 2.5 22.1413 2.5 23.125C2.5 24.1812 3.01375 25.0138 3.75375 25.6075C4.45375 26.17 5.3775 26.5425 6.35875 26.8025C8.33125 27.3237 10.9637 27.5 13.75 27.5L14.6063 27.4938C14.8156 27.4909 15.0209 27.4355 15.2032 27.3326C15.3856 27.2297 15.5392 27.0827 15.6499 26.905C15.7607 26.7273 15.825 26.5247 15.837 26.3157C15.849 26.1067 15.8084 25.898 15.7188 25.7087C15.2437 24.7059 14.9981 23.6097 15 22.5C15 20.935 15.4787 19.485 16.2962 18.2837C16.4178 18.1052 16.491 17.8983 16.5087 17.6831C16.5264 17.4679 16.4881 17.2517 16.3975 17.0557C16.3069 16.8597 16.167 16.6905 15.9915 16.5647C15.816 16.4388 15.611 16.3605 15.3963 16.3375C14.8588 16.28 14.3088 16.25 13.75 16.25ZM25.77 19.3363C25.8534 19.194 25.9078 19.0367 25.9301 18.8734C25.9525 18.7101 25.9423 18.5439 25.9001 18.3846C25.858 18.2252 25.7847 18.0757 25.6846 17.9448C25.5845 17.8138 25.4594 17.704 25.3167 17.6215C25.1739 17.5391 25.0162 17.4857 24.8528 17.4645C24.6893 17.4432 24.5232 17.4545 24.3641 17.4977C24.205 17.5409 24.0561 17.6152 23.9258 17.7162C23.7955 17.8172 23.6865 17.9429 23.605 18.0863L23.185 18.8137C22.7319 18.7289 22.267 18.7285 21.8138 18.8125L21.395 18.0863C21.3135 17.9429 21.2045 17.8172 21.0742 17.7162C20.9439 17.6152 20.795 17.5409 20.6359 17.4977C20.4768 17.4545 20.3107 17.4432 20.1472 17.4645C19.9838 17.4857 19.8261 17.5391 19.6833 17.6215C19.5406 17.704 19.4155 17.8138 19.3154 17.9448C19.2153 18.0757 19.142 18.2252 19.0999 18.3846C19.0577 18.5439 19.0475 18.7101 19.0699 18.8734C19.0922 19.0367 19.1466 19.194 19.23 19.3363L19.6488 20.0612C19.3496 20.4121 19.1178 20.8151 18.965 21.25H18.125C17.7935 21.25 17.4755 21.3817 17.2411 21.6161C17.0067 21.8505 16.875 22.1685 16.875 22.5C16.875 22.8315 17.0067 23.1495 17.2411 23.3839C17.4755 23.6183 17.7935 23.75 18.125 23.75H18.9637C19.1181 24.1844 19.3507 24.5869 19.65 24.9375L19.23 25.6637C19.1466 25.806 19.0922 25.9633 19.0699 26.1266C19.0475 26.2899 19.0577 26.4561 19.0999 26.6154C19.142 26.7748 19.2153 26.9243 19.3154 27.0552C19.4155 27.1862 19.5406 27.296 19.6833 27.3785C19.8261 27.4609 19.9838 27.5143 20.1472 27.5355C20.3107 27.5568 20.4768 27.5455 20.6359 27.5023C20.795 27.4591 20.9439 27.3848 21.0742 27.2838C21.2045 27.1828 21.3135 27.0571 21.395 26.9137L21.815 26.1875C22.2638 26.27 22.7275 26.2725 23.1862 26.1875L23.605 26.9137C23.6865 27.0571 23.7955 27.1828 23.9258 27.2838C24.0561 27.3848 24.205 27.4591 24.3641 27.5023C24.5232 27.5455 24.6893 27.5568 24.8528 27.5355C25.0162 27.5143 25.1739 27.4609 25.3167 27.3785C25.4594 27.296 25.5845 27.1862 25.6846 27.0552C25.7847 26.9243 25.858 26.7748 25.9001 26.6154C25.9423 26.4561 25.9525 26.2899 25.9301 26.1266C25.9078 25.9633 25.8534 25.806 25.77 25.6637L25.3512 24.9388C25.6537 24.5837 25.8837 24.18 26.035 23.75H26.875C27.2065 23.75 27.5245 23.6183 27.7589 23.3839C27.9933 23.1495 28.125 22.8315 28.125 22.5C28.125 22.1685 27.9933 21.8505 27.7589 21.6161C27.5245 21.3817 27.2065 21.25 26.875 21.25H26.0363C25.8817 20.8157 25.6491 20.4133 25.35 20.0625L25.77 19.3363Z" fill="black"/>
</g>
<defs>
<clipPath id="clip0_106_563">
<rect width="30" height="30" fill="white"/>
</clipPath>
</defs>
</svg>
