<svg width="40" height="40" viewBox="0 0 40 40" fill="none" xmlns="http://www.w3.org/2000/svg">
<g id="twemoji:crown">
<path id="Vector" d="M15.7477 18.9719L7.49884 8.4375L3.36328 18.9719H15.7477Z" fill="#F4900C"/>
<path id="Vector_2" d="M19.9328 6.14844L12.6406 19.914H27.224L19.9328 6.14844Z" fill="#F4900C"/>
<path id="Vector_3" d="M24.25 18.9719L32.4989 8.4375L36.6344 18.9719H24.25Z" fill="#F4900C"/>
<path id="Vector_4" d="M31.8541 16.8775L26.5408 3.9142L20.0074 16.8786L19.9997 16.882L19.9919 16.8775L13.4585 3.91309L8.14521 16.8775C4.66299 12.0364 1.42188 8.93531 1.42188 8.93531C1.42188 8.93531 3.33299 23.0553 3.33299 36.6664H36.6663C36.6663 23.0553 38.5774 8.93531 38.5774 8.93531C38.5774 8.93531 35.3363 12.0364 31.8541 16.8775Z" fill="#FFCC4D"/>
<path id="Vector_5" d="M19.9532 28.5422C22.2164 28.5422 24.051 26.7076 24.051 24.4445C24.051 22.1813 22.2164 20.3467 19.9532 20.3467C17.6901 20.3467 15.8555 22.1813 15.8555 24.4445C15.8555 26.7076 17.6901 28.5422 19.9532 28.5422Z" fill="#5C913B"/>
<path id="Vector_6" d="M29.4027 27.1247C30.8828 27.1247 32.0827 25.9248 32.0827 24.4446C32.0827 22.9645 30.8828 21.7646 29.4027 21.7646C27.9225 21.7646 26.7227 22.9645 26.7227 24.4446C26.7227 25.9248 27.9225 27.1247 29.4027 27.1247Z" fill="#981CEB"/>
<path id="Vector_7" d="M36.5035 26.6506C37.7223 26.6506 38.7102 25.6627 38.7102 24.444C38.7102 23.2253 37.7223 22.2373 36.5035 22.2373C35.2848 22.2373 34.2969 23.2253 34.2969 24.444C34.2969 25.6627 35.2848 26.6506 36.5035 26.6506Z" fill="#DD2E44"/>
<path id="Vector_8" d="M10.5003 27.1247C11.9804 27.1247 13.1803 25.9248 13.1803 24.4446C13.1803 22.9645 11.9804 21.7646 10.5003 21.7646C9.02019 21.7646 7.82031 22.9645 7.82031 24.4446C7.82031 25.9248 9.02019 27.1247 10.5003 27.1247Z" fill="#981CEB"/>
<path id="Vector_9" d="M3.40198 26.6506C4.62069 26.6506 5.60865 25.6627 5.60865 24.444C5.60865 23.2253 4.62069 22.2373 3.40198 22.2373C2.18327 22.2373 1.19531 23.2253 1.19531 24.444C1.19531 25.6627 2.18327 26.6506 3.40198 26.6506Z" fill="#DD2E44"/>
<path id="Vector_10" d="M36.6671 37.7782H3.33377C3.03908 37.7782 2.75647 37.6611 2.54809 37.4527C2.33972 37.2444 2.22266 36.9617 2.22266 36.6671C2.22266 36.3724 2.33972 36.0898 2.54809 35.8814C2.75647 35.673 3.03908 35.556 3.33377 35.556H36.6671C36.9618 35.556 37.2444 35.673 37.4528 35.8814C37.6612 36.0898 37.7782 36.3724 37.7782 36.6671C37.7782 36.9617 37.6612 37.2444 37.4528 37.4527C37.2444 37.6611 36.9618 37.7782 36.6671 37.7782ZM36.6671 33.9048H3.33377C3.03908 33.9048 2.75647 33.7878 2.54809 33.5794C2.33972 33.371 2.22266 33.0884 2.22266 32.7937C2.22266 32.499 2.33972 32.2164 2.54809 32.0081C2.75647 31.7997 3.03908 31.6826 3.33377 31.6826H36.6671C36.9618 31.6826 37.2444 31.7997 37.4528 32.0081C37.6612 32.2164 37.7782 32.499 37.7782 32.7937C37.7782 33.0884 37.6612 33.371 37.4528 33.5794C37.2444 33.7878 36.9618 33.9048 36.6671 33.9048Z" fill="#FFAC33"/>
<path id="Vector_11" d="M1.6063 10.4987C2.46971 10.4987 3.16964 9.79881 3.16964 8.9354C3.16964 8.072 2.46971 7.37207 1.6063 7.37207C0.742897 7.37207 0.0429688 8.072 0.0429688 8.9354C0.0429688 9.79881 0.742897 10.4987 1.6063 10.4987Z" fill="#FFCC4D"/>
<path id="Vector_12" d="M7.50023 9.76217C8.2317 9.76217 8.82467 9.1692 8.82467 8.43773C8.82467 7.70626 8.2317 7.11328 7.50023 7.11328C6.76876 7.11328 6.17578 7.70626 6.17578 8.43773C6.17578 9.1692 6.76876 9.76217 7.50023 9.76217Z" fill="#F4900C"/>
<path id="Vector_13" d="M13.4588 5.89706C14.5535 5.89706 15.441 5.00959 15.441 3.91484C15.441 2.82009 14.5535 1.93262 13.4588 1.93262C12.364 1.93262 11.4766 2.82009 11.4766 3.91484C11.4766 5.00959 12.364 5.89706 13.4588 5.89706Z" fill="#FFCC4D"/>
<path id="Vector_14" d="M38.3915 10.4987C39.2549 10.4987 39.9548 9.79881 39.9548 8.9354C39.9548 8.072 39.2549 7.37207 38.3915 7.37207C37.5281 7.37207 36.8281 8.072 36.8281 8.9354C36.8281 9.79881 37.5281 10.4987 38.3915 10.4987Z" fill="#FFCC4D"/>
<path id="Vector_15" d="M32.5002 9.76217C33.2317 9.76217 33.8247 9.1692 33.8247 8.43773C33.8247 7.70626 33.2317 7.11328 32.5002 7.11328C31.7688 7.11328 31.1758 7.70626 31.1758 8.43773C31.1758 9.1692 31.7688 9.76217 32.5002 9.76217Z" fill="#F4900C"/>
<path id="Vector_16" d="M26.5408 5.89706C27.6356 5.89706 28.523 5.00959 28.523 3.91484C28.523 2.82009 27.6356 1.93262 26.5408 1.93262C25.4461 1.93262 24.5586 2.82009 24.5586 3.91484C24.5586 5.00959 25.4461 5.89706 26.5408 5.89706Z" fill="#FFCC4D"/>
<path id="Vector_17" d="M19.9314 8.13144C21.0262 8.13144 21.9137 7.24397 21.9137 6.14921C21.9137 5.05446 21.0262 4.16699 19.9314 4.16699C18.8367 4.16699 17.9492 5.05446 17.9492 6.14921C17.9492 7.24397 18.8367 8.13144 19.9314 8.13144Z" fill="#F4900C"/>
</g>
</svg>
