<svg width="30" height="30" viewBox="0 0 30 30" fill="none" xmlns="http://www.w3.org/2000/svg">
<path d="M5.71694 5.71694C6.06856 5.36543 6.54539 5.16797 7.04257 5.16797C7.53975 5.16797 8.01658 5.36543 8.36819 5.71694L14.9982 12.3469L21.6282 5.71694C21.9818 5.3754 22.4555 5.18641 22.9471 5.19068C23.4387 5.19495 23.909 5.39214 24.2566 5.73978C24.6042 6.08742 24.8014 6.5577 24.8057 7.04932C24.81 7.54094 24.621 8.01456 24.2794 8.36819L17.6494 14.9982L24.2794 21.6282C24.621 21.9818 24.81 22.4555 24.8057 22.9471C24.8014 23.4387 24.6042 23.909 24.2566 24.2566C23.909 24.6042 23.4387 24.8014 22.9471 24.8057C22.4555 24.81 21.9818 24.621 21.6282 24.2794L14.9982 17.6494L8.36819 24.2794C8.01456 24.621 7.54094 24.81 7.04932 24.8057C6.5577 24.8014 6.08742 24.6042 5.73978 24.2566C5.39214 23.909 5.19495 23.4387 5.19068 22.9471C5.18641 22.4555 5.3754 21.9818 5.71694 21.6282L12.3469 14.9982L5.71694 8.36819C5.36543 8.01658 5.16797 7.53975 5.16797 7.04257C5.16797 6.54539 5.36543 6.06856 5.71694 5.71694Z" fill="black"/>
</svg>
