<svg width="20" height="20" viewBox="0 0 20 20" fill="none" xmlns="http://www.w3.org/2000/svg">
<path d="M15 15H14.873C14.7233 14.2708 14.4596 13.6003 14.082 12.9883C13.7044 12.3763 13.2454 11.849 12.7051 11.4062C12.1647 10.9635 11.556 10.6185 10.8789 10.3711C10.2018 10.1237 9.49219 10 8.75 10C8.17708 10 7.6237 10.0749 7.08984 10.2246C6.55599 10.3743 6.05794 10.5827 5.5957 10.8496C5.13346 11.1165 4.71354 11.4421 4.33594 11.8262C3.95833 12.2103 3.63281 12.6335 3.35938 13.0957C3.08594 13.5579 2.87435 14.056 2.72461 14.5898C2.57487 15.1237 2.5 15.6771 2.5 16.25H1.25C1.25 15.4688 1.36393 14.7168 1.5918 13.9941C1.81966 13.2715 2.14844 12.6042 2.57812 11.9922C3.00781 11.3802 3.51562 10.8366 4.10156 10.3613C4.6875 9.88607 5.35156 9.51172 6.09375 9.23828C5.35807 8.75651 4.78516 8.15104 4.375 7.42188C3.96484 6.69271 3.75651 5.88542 3.75 5C3.75 4.3099 3.88021 3.66211 4.14062 3.05664C4.40104 2.45117 4.75586 1.92057 5.20508 1.46484C5.6543 1.00911 6.1849 0.651042 6.79688 0.390625C7.40885 0.130208 8.0599 0 8.75 0C9.4401 0 10.0879 0.130208 10.6934 0.390625C11.2988 0.651042 11.8294 1.00586 12.2852 1.45508C12.7409 1.9043 13.099 2.4349 13.3594 3.04688C13.6198 3.65885 13.75 4.3099 13.75 5C13.75 5.42969 13.6979 5.84961 13.5938 6.25977C13.4896 6.66992 13.3333 7.05729 13.125 7.42188C12.9167 7.78646 12.6725 8.12174 12.3926 8.42773C12.1126 8.73372 11.7839 9.00391 11.4062 9.23828C12.1354 9.51823 12.806 9.90234 13.418 10.3906C14.0299 10.8789 14.5573 11.4518 15 12.1094V15ZM5 5C5 5.52083 5.09766 6.00586 5.29297 6.45508C5.48828 6.9043 5.75521 7.30143 6.09375 7.64648C6.43229 7.99154 6.82943 8.26172 7.28516 8.45703C7.74089 8.65234 8.22917 8.75 8.75 8.75C9.26432 8.75 9.74935 8.65234 10.2051 8.45703C10.6608 8.26172 11.0579 7.99479 11.3965 7.65625C11.735 7.31771 12.0052 6.92057 12.207 6.46484C12.4089 6.00911 12.5065 5.52083 12.5 5C12.5 4.48568 12.4023 4.00065 12.207 3.54492C12.0117 3.08919 11.7448 2.69206 11.4062 2.35352C11.0677 2.01497 10.6673 1.74479 10.2051 1.54297C9.74284 1.34115 9.25781 1.24349 8.75 1.25C8.22917 1.25 7.74414 1.34766 7.29492 1.54297C6.8457 1.73828 6.44857 2.00521 6.10352 2.34375C5.75846 2.68229 5.48828 3.08268 5.29297 3.54492C5.09766 4.00716 5 4.49219 5 5ZM17.5 16.25H20V17.5H17.5V20H16.25V17.5H13.75V16.25H16.25V13.75H17.5V16.25Z" fill="#98989E"/>
</svg>
