<svg width="20" height="20" viewBox="0 0 20 20" fill="none" xmlns="http://www.w3.org/2000/svg">
<path d="M16.1863 3.8121C15.3753 2.99302 14.4104 2.34227 13.3471 1.89722C12.2837 1.45218 11.143 1.22161 9.99029 1.21878C8.8376 1.21594 7.69571 1.44088 6.63022 1.88069C5.56473 2.32049 4.59664 2.96649 3.78157 3.78157C2.96649 4.59664 2.32049 5.56473 1.88069 6.63022C1.44088 7.69571 1.21594 8.8376 1.21878 9.99029C1.22161 11.143 1.45218 12.2837 1.89722 13.3471C2.34227 14.4104 2.99302 15.3753 3.8121 16.1863C4.62315 17.0054 5.58805 17.6561 6.65136 18.1012C7.71467 18.5462 8.85544 18.7768 10.0081 18.7796C11.1608 18.7825 12.3027 18.5575 13.3682 18.1177C14.4337 17.6779 15.4018 17.0319 16.2168 16.2168C17.0319 15.4018 17.6779 14.4337 18.1177 13.3682C18.5575 12.3027 18.7825 11.1608 18.7796 10.0081C18.7768 8.85544 18.5462 7.71467 18.1012 6.65136C17.6561 5.58805 17.0054 4.62315 16.1863 3.8121ZM16.8742 9.99921C16.8757 11.4987 16.3843 12.9571 15.4758 14.15L5.84843 4.52264C7.04131 3.61409 8.49972 3.12274 9.99921 3.12421C13.7902 3.12421 16.8742 6.21014 16.8742 9.99921ZM3.12421 9.99921C3.12274 8.49972 3.61409 7.04131 4.52264 5.84843L14.15 15.4758C12.9571 16.3843 11.4987 16.8757 9.99921 16.8742C6.21014 16.8742 3.12421 13.7902 3.12421 9.99921Z" fill="#1F2021"/>
</svg>
