<svg width="20" height="20" viewBox="0 0 20 20" fill="none" xmlns="http://www.w3.org/2000/svg">
<path d="M15.625 11.25C16.2305 11.25 16.7969 11.3639 17.3242 11.5918C17.8516 11.8197 18.3171 12.1322 18.7207 12.5293C19.1243 12.9264 19.4368 13.3887 19.6582 13.916C19.8796 14.4434 19.9935 15.013 20 15.625C20 16.2305 19.8861 16.7969 19.6582 17.3242C19.4303 17.8516 19.1178 18.3171 18.7207 18.7207C18.3236 19.1243 17.8613 19.4368 17.334 19.6582C16.8066 19.8796 16.237 19.9935 15.625 20C15.0195 20 14.4531 19.8861 13.9258 19.6582C13.3984 19.4303 12.9329 19.1178 12.5293 18.7207C12.1257 18.3236 11.8132 17.8613 11.5918 17.334C11.3704 16.8066 11.2565 16.237 11.25 15.625C11.25 15.0195 11.3639 14.4531 11.5918 13.9258C11.8197 13.3984 12.1322 12.9329 12.5293 12.5293C12.9264 12.1257 13.3887 11.8132 13.916 11.5918C14.4434 11.3704 15.013 11.2565 15.625 11.25ZM12.5 15.625C12.5 16.0547 12.5814 16.4583 12.7441 16.8359C12.9069 17.2135 13.1283 17.5456 13.4082 17.832C13.6882 18.1185 14.0202 18.3431 14.4043 18.5059C14.7884 18.6686 15.1953 18.75 15.625 18.75C15.931 18.75 16.2305 18.7077 16.5234 18.623C16.8164 18.5384 17.0898 18.4082 17.3438 18.2324L13.0176 13.9062C12.8483 14.1602 12.7214 14.4336 12.6367 14.7266C12.5521 15.0195 12.5065 15.319 12.5 15.625ZM18.2324 17.3438C18.4017 17.0898 18.5286 16.8164 18.6133 16.5234C18.6979 16.2305 18.7435 15.931 18.75 15.625C18.75 15.1953 18.6686 14.7917 18.5059 14.4141C18.3431 14.0365 18.1185 13.7077 17.832 13.4277C17.5456 13.1478 17.2135 12.9232 16.8359 12.7539C16.4583 12.5846 16.0547 12.5 15.625 12.5C15.319 12.5 15.0195 12.5423 14.7266 12.627C14.4336 12.7116 14.1602 12.8418 13.9062 13.0176L18.2324 17.3438ZM20 1.25V11.8848C19.8177 11.6699 19.6257 11.4681 19.4238 11.2793C19.222 11.0905 18.9974 10.9212 18.75 10.7715V2.5H1.25V13.75H3.75V16.3574L6.35742 13.75H10.1855C10.0423 14.1602 9.94792 14.5768 9.90234 15H6.875L2.5 19.375V15H0V1.25H20Z" fill="#1F2021"/>
</svg>
