<svg width="25" height="25" viewBox="0 0 25 25" fill="none" xmlns="http://www.w3.org/2000/svg">
<path d="M14.8438 16.4062V18.3594C14.8438 18.8774 14.638 19.3742 14.2717 19.7404C13.9054 20.1067 13.4086 20.3125 12.8906 20.3125H5.07812C4.56012 20.3125 4.06334 20.1067 3.69706 19.7404C3.33078 19.3742 3.125 18.8774 3.125 18.3594V6.64062C3.125 6.12262 3.33078 5.62584 3.69706 5.25956C4.06334 4.89328 4.56012 4.6875 5.07812 4.6875H12.5C13.5786 4.6875 14.8438 5.56201 14.8438 6.64062V8.59375M17.9688 16.4062L21.875 12.5L17.9688 8.59375M8.59375 12.5H21.0938" stroke="#1F2021" stroke-width="1.25" stroke-linecap="round" stroke-linejoin="round"/>
</svg>
