<svg width="20" height="20" viewBox="0 0 20 20" fill="none" xmlns="http://www.w3.org/2000/svg">
<g clip-path="url(#clip0_281_2767)">
<path d="M12.7051 10.8398C12.5293 10.9505 12.36 11.0645 12.1973 11.1816C12.0345 11.2988 11.875 11.4355 11.7188 11.5918C11.1393 11.071 10.4883 10.6771 9.76562 10.4102C9.04297 10.1432 8.28776 10.0065 7.5 10C6.6276 10 5.81055 10.1595 5.04883 10.4785C4.28711 10.7975 3.6263 11.2402 3.06641 11.8066C2.50651 12.373 2.0638 13.0371 1.73828 13.7988C1.41276 14.5605 1.25 15.3776 1.25 16.25H0C0 15.4688 0.113932 14.7135 0.341797 13.9844C0.569661 13.2552 0.895182 12.5846 1.31836 11.9727C1.74154 11.3607 2.24935 10.8171 2.8418 10.3418C3.43424 9.86654 4.10482 9.49544 4.85352 9.22852C4.49544 9.00065 4.17318 8.73372 3.88672 8.42773C3.60026 8.12174 3.35286 7.7832 3.14453 7.41211C2.9362 7.04102 2.77669 6.6569 2.66602 6.25977C2.55534 5.86263 2.5 5.44271 2.5 5C2.5 4.3099 2.63021 3.66211 2.89062 3.05664C3.15104 2.45117 3.50911 1.92383 3.96484 1.47461C4.42057 1.02539 4.95117 0.667318 5.55664 0.400391C6.16211 0.133464 6.8099 0 7.5 0C8.1901 0 8.83789 0.130208 9.44336 0.390625C10.0488 0.651042 10.5762 1.00911 11.0254 1.46484C11.4746 1.92057 11.8327 2.45117 12.0996 3.05664C12.3665 3.66211 12.5 4.3099 12.5 5C12.5 5.42969 12.4447 5.84635 12.334 6.25C12.2233 6.65365 12.0671 7.04102 11.8652 7.41211C11.6634 7.7832 11.416 8.11849 11.123 8.41797C10.8301 8.71745 10.5046 8.98763 10.1465 9.22852C10.6283 9.39779 11.0807 9.61914 11.5039 9.89258C11.9271 10.166 12.3275 10.4818 12.7051 10.8398ZM3.75 5C3.75 5.51432 3.84766 5.99935 4.04297 6.45508C4.23828 6.91081 4.50846 7.30794 4.85352 7.64648C5.19857 7.98503 5.5957 8.25195 6.04492 8.44727C6.49414 8.64258 6.97917 8.74349 7.5 8.75C8.01432 8.75 8.49935 8.65234 8.95508 8.45703C9.41081 8.26172 9.80794 7.99154 10.1465 7.64648C10.485 7.30143 10.752 6.9043 10.9473 6.45508C11.1426 6.00586 11.2435 5.52083 11.25 5C11.25 4.48568 11.1523 4.00065 10.957 3.54492C10.7617 3.08919 10.4915 2.69206 10.1465 2.35352C9.80143 2.01497 9.4043 1.74805 8.95508 1.55273C8.50586 1.35742 8.02083 1.25651 7.5 1.25C6.98568 1.25 6.50065 1.34766 6.04492 1.54297C5.58919 1.73828 5.19206 2.00846 4.85352 2.35352C4.51497 2.69857 4.24805 3.0957 4.05273 3.54492C3.85742 3.99414 3.75651 4.47917 3.75 5ZM15.625 11.25C16.2305 11.25 16.7969 11.3639 17.3242 11.5918C17.8516 11.8197 18.3138 12.1322 18.7109 12.5293C19.1081 12.9264 19.4206 13.3887 19.6484 13.916C19.8763 14.4434 19.9935 15.013 20 15.625C20 16.2305 19.8861 16.7969 19.6582 17.3242C19.4303 17.8516 19.1178 18.3138 18.7207 18.7109C18.3236 19.1081 17.8613 19.4206 17.334 19.6484C16.8066 19.8763 16.237 19.9935 15.625 20C15.0195 20 14.4531 19.8861 13.9258 19.6582C13.3984 19.4303 12.9362 19.1178 12.5391 18.7207C12.1419 18.3236 11.8294 17.8613 11.6016 17.334C11.3737 16.8066 11.2565 16.237 11.25 15.625C11.25 15.0195 11.3639 14.4531 11.5918 13.9258C11.8197 13.3984 12.1322 12.9362 12.5293 12.5391C12.9264 12.1419 13.3887 11.8294 13.916 11.6016C14.4434 11.3737 15.013 11.2565 15.625 11.25ZM15.625 18.75C15.931 18.75 16.2305 18.7077 16.5234 18.623C16.8164 18.5384 17.0898 18.4082 17.3438 18.2324L13.0176 13.9062C12.8483 14.1602 12.7214 14.4336 12.6367 14.7266C12.5521 15.0195 12.5065 15.319 12.5 15.625C12.5 16.0547 12.5814 16.4583 12.7441 16.8359C12.9069 17.2135 13.1315 17.5423 13.418 17.8223C13.7044 18.1022 14.0365 18.3268 14.4141 18.4961C14.7917 18.6654 15.1953 18.75 15.625 18.75ZM18.2324 17.3438C18.4017 17.0898 18.5286 16.8164 18.6133 16.5234C18.6979 16.2305 18.7435 15.931 18.75 15.625C18.75 15.1953 18.6686 14.7917 18.5059 14.4141C18.3431 14.0365 18.1185 13.7077 17.832 13.4277C17.5456 13.1478 17.2135 12.9232 16.8359 12.7539C16.4583 12.5846 16.0547 12.5 15.625 12.5C15.319 12.5 15.0195 12.5423 14.7266 12.627C14.4336 12.7116 14.1602 12.8418 13.9062 13.0176L18.2324 17.3438Z" fill="black"/>
</g>
<defs>
<clipPath id="clip0_281_2767">
<rect width="20" height="20" fill="white"/>
</clipPath>
</defs>
</svg>
