<svg width="16" height="20" viewBox="0 0 16 20" fill="none" xmlns="http://www.w3.org/2000/svg">
<path d="M11.332 10.0007C13.3104 10.9865 14.6654 13.0423 14.6654 15.834V19.1673H1.33203V15.834C1.33203 13.039 2.6912 10.9798 4.66536 10.0007M12.9987 5.83398C12.9987 6.49059 12.8694 7.14077 12.6181 7.7474C12.3668 8.35403 11.9985 8.90522 11.5342 9.36952C11.0699 9.83381 10.5187 10.2021 9.91211 10.4534C9.30549 10.7047 8.65531 10.834 7.9987 10.834C6.67262 10.834 5.40085 10.3072 4.46316 9.36952C3.52548 8.43184 2.9987 7.16007 2.9987 5.83398M12.9987 5.83398C12.9987 5.17737 12.8694 4.52719 12.6181 3.92057C12.3668 3.31394 11.9985 2.76274 11.5342 2.29845C11.0699 1.83416 10.5187 1.46586 9.91211 1.21459C9.30549 0.963313 8.65531 0.833984 7.9987 0.833984C6.67262 0.833984 5.40085 1.36077 4.46316 2.29845C3.52548 3.23613 2.9987 4.5079 2.9987 5.83398M12.9987 5.83398C11.7487 5.83398 10.4987 6.13398 8.83203 4.16732C7.16536 6.13398 5.08203 6.66732 2.9987 5.83398M3.83203 10.834L8.01953 15.2148L12.1654 10.834M7.9987 15.0006V19.1673" stroke="#98989E" stroke-width="1.66667"/>
</svg>
