<svg width="25" height="26" viewBox="0 0 25 26" fill="none" xmlns="http://www.w3.org/2000/svg">
<rect x="1.01172" y="1.17383" width="22.2461" height="23" rx="11.1231" fill="#6F70C9"/>
<path d="M14.4225 8.92969L4.85547 18.5203V20.5592H6.89453L16.4852 10.9921L14.4225 8.92969Z" fill="white"/>
<path fill-rule="evenodd" clip-rule="evenodd" d="M13.745 8.33309C13.9193 8.15836 14.2023 8.15818 14.3768 8.33269L16.851 10.8067C17.0255 10.9812 17.0254 11.2642 16.8506 11.4385L7.96959 20.2977C7.80218 20.4647 7.57537 20.5585 7.33891 20.5585H4.8929C4.74494 20.5585 4.625 20.4386 4.625 20.2906V17.8448C4.625 17.6083 4.71878 17.3815 4.88578 17.2141L13.745 8.33309ZM14.0623 10.5439L6.41102 18.214V18.7725H6.96966L14.6397 11.1213L14.0623 10.5439Z" fill="white"/>
<path d="M15.9704 6.36185L14.8902 7.44132C14.7157 7.61566 14.7156 7.89844 14.89 8.07286L17.1124 10.2955C17.2868 10.4699 17.5695 10.4699 17.7439 10.2955L18.8243 9.21496C19.1907 8.8483 19.3965 8.35116 19.3965 7.83282C19.3965 7.31448 19.1907 6.81734 18.8243 6.45068L18.7355 6.36185C18.554 6.18026 18.3384 6.03621 18.1012 5.93793C17.864 5.83965 17.6097 5.78906 17.353 5.78906C17.0962 5.78906 16.8419 5.83965 16.6047 5.93793C16.3675 6.03621 16.152 6.18026 15.9704 6.36185Z" fill="white"/>
<rect x="1.01172" y="1.17383" width="22.2461" height="23" rx="11.1231" stroke="white" stroke-width="2"/>
</svg>
