<svg width="30" height="30" viewBox="0 0 30 30" fill="none" xmlns="http://www.w3.org/2000/svg">
<g clip-path="url(#clip0_42_587)">
<path fill-rule="evenodd" clip-rule="evenodd" d="M25.1646 3.94951C24.4614 3.2465 23.5078 2.85156 22.5134 2.85156C21.519 2.85156 20.5654 3.2465 19.8621 3.94951L18.9784 4.83451L25.1659 11.022L26.0484 10.1383C26.3967 9.79003 26.673 9.37661 26.8614 8.9216C27.0499 8.46658 27.147 7.9789 27.147 7.48639C27.147 6.99388 27.0499 6.50619 26.8614 6.05118C26.673 5.59616 26.3967 5.18274 26.0484 4.83451L25.1646 3.94951ZM23.3971 12.7895L17.2096 6.60201L5.84714 17.9658C5.59849 18.2145 5.42479 18.5281 5.34589 18.8708L4.05964 24.4395C4.01171 24.6462 4.01721 24.8618 4.07561 25.0658C4.13401 25.2698 4.2434 25.4556 4.39346 25.6057C4.54352 25.7557 4.72932 25.8651 4.93334 25.9235C5.13737 25.9819 5.3529 25.9874 5.55964 25.9395L11.1296 24.6545C11.4719 24.5754 11.785 24.4017 12.0334 24.1533L23.3971 12.7895Z" fill="black"/>
</g>
<defs>
<clipPath id="clip0_42_587">
<rect width="30" height="30" rx="15" fill="white"/>
</clipPath>
</defs>
</svg>
