<svg width="35" height="35" viewBox="0 0 35 35" fill="none" xmlns="http://www.w3.org/2000/svg">
<g clip-path="url(#clip0_89_1755)">
<path d="M12.1907 1.15111C8.69362 2.36427 5.67777 4.66688 3.58611 7.72073C1.49444 10.7746 0.437202 14.4187 0.569685 18.1178C0.702168 21.8169 2.01739 25.3761 4.32216 28.2725C6.62694 31.1689 9.79978 33.2498 13.3746 34.2097C16.2729 34.9576 19.3094 34.9904 22.2231 34.3054C24.8626 33.7125 27.303 32.4443 29.3051 30.6249C31.3889 28.6735 32.9015 26.1911 33.6801 23.4445C34.5262 20.4576 34.6768 17.3166 34.1203 14.2624H17.8454V21.0136H27.2707C27.0824 22.0904 26.6787 23.1181 26.0839 24.0352C25.4891 24.9523 24.7154 25.74 23.809 26.3511C22.6582 27.1127 21.3607 27.625 20 27.855C18.6354 28.1088 17.2357 28.1088 15.8711 27.855C14.488 27.5694 13.1795 26.9985 12.0293 26.1788C10.1813 24.8707 8.79368 23.0122 8.06449 20.8687C7.32317 18.685 7.32317 16.3176 8.06449 14.1339C8.58355 12.6033 9.44161 11.2096 10.5746 10.057C11.8713 8.7137 13.5128 7.75353 15.3192 7.28179C17.1256 6.81005 19.027 6.84499 20.8149 7.38275C22.2116 7.81129 23.4888 8.56039 24.5446 9.57025C25.6073 8.51296 26.6683 7.45294 27.7274 6.39018C28.2743 5.81869 28.8703 5.27455 29.409 4.68939C27.7972 3.18964 25.9054 2.02257 23.8418 1.25502C20.084 -0.109461 15.9722 -0.14613 12.1907 1.15111Z" fill="white"/>
<path d="M12.1918 1.15122C15.9731 -0.146904 20.0848 -0.1112 23.843 1.25239C25.9069 2.02516 27.7978 3.19785 29.4074 4.70317C28.8605 5.28833 28.2836 5.83521 27.7258 6.40396C26.6648 7.46307 25.6048 8.51854 24.5457 9.57036C23.4899 8.5605 22.2127 7.8114 20.816 7.38286C19.0288 6.84321 17.1274 6.80626 15.3205 7.27606C13.5136 7.74587 11.8711 8.70428 10.573 10.0461C9.44001 11.1988 8.58195 12.5924 8.06289 14.1231L2.39453 9.73442C4.42346 5.71096 7.93642 2.63332 12.1918 1.15122Z" fill="#E33629"/>
<path d="M0.889836 14.082C1.19428 12.572 1.7001 11.1097 2.39374 9.73438L8.0621 14.134C7.32078 16.3177 7.32078 18.685 8.0621 20.8688C6.17356 22.3271 4.28411 23.7927 2.39374 25.2656C0.657826 21.8102 0.128402 17.8732 0.889836 14.082Z" fill="#F8BD00"/>
<path d="M17.8489 14.2598H34.1239C34.6803 17.3139 34.5297 20.4549 33.6836 23.4418C32.905 26.1884 31.3925 28.6709 29.3086 30.6223C27.4793 29.1949 25.6418 27.7785 23.8125 26.3512C24.7195 25.7394 25.4936 24.9509 26.0884 24.0328C26.6832 23.1147 27.0866 22.0859 27.2743 21.0082H17.8489C17.8461 18.7605 17.8489 16.5102 17.8489 14.2598Z" fill="#587DBD"/>
<path d="M2.39062 25.2656C4.28099 23.8073 6.17044 22.3417 8.05898 20.8688C8.78963 23.0131 10.1792 24.8716 12.0293 26.1789C13.1831 26.9948 14.4943 27.561 15.8793 27.8414C17.2439 28.0952 18.6436 28.0952 20.0082 27.8414C21.3689 27.6114 22.6664 27.0991 23.8172 26.3375C25.6465 27.7649 27.484 29.1813 29.3133 30.6086C27.3114 32.429 24.8711 33.6981 22.2312 34.2918C19.3175 34.9768 16.281 34.944 13.3828 34.1961C11.0906 33.5841 8.9495 32.5052 7.09375 31.027C5.12972 29.4673 3.52549 27.5022 2.39062 25.2656Z" fill="#319F43"/>
</g>
<defs>
<clipPath id="clip0_89_1755">
<rect width="35" height="35" fill="white"/>
</clipPath>
</defs>
</svg>
