<svg width="100" height="100" viewBox="0 0 100 100" fill="none" xmlns="http://www.w3.org/2000/svg">
<rect width="100" height="100" rx="50" fill="#D2E0FB"/>
<path d="M26.668 76.6666V73.3333C26.668 67.1449 29.1263 61.2099 33.5021 56.8341C37.878 52.4582 43.8129 49.9999 50.0013 49.9999M50.0013 49.9999C56.1897 49.9999 62.1246 52.4582 66.5005 56.8341C70.8763 61.2099 73.3346 67.1449 73.3346 73.3333V76.6666M50.0013 49.9999C53.5375 49.9999 56.9289 48.5952 59.4294 46.0947C61.9299 43.5942 63.3346 40.2028 63.3346 36.6666C63.3346 33.1304 61.9299 29.739 59.4294 27.2385C56.9289 24.738 53.5375 23.3333 50.0013 23.3333C46.4651 23.3333 43.0737 24.738 40.5732 27.2385C38.0727 29.739 36.668 33.1304 36.668 36.6666C36.668 40.2028 38.0727 43.5942 40.5732 46.0947C43.0737 48.5952 46.4651 49.9999 50.0013 49.9999Z" stroke="#5C5D61" stroke-width="5" stroke-linecap="round" stroke-linejoin="round"/>
</svg>
