<svg width="44" height="44" viewBox="0 0 44 44" fill="none" xmlns="http://www.w3.org/2000/svg">
<path d="M19.7917 0C25.0407 0 30.0748 2.08519 33.7865 5.79684C37.4981 9.5085 39.5833 14.5426 39.5833 19.7917C39.5833 22.9792 38.8312 25.9875 37.4937 28.6542L42.625 33.7875C43.0156 34.1782 43.235 34.708 43.235 35.2604C43.235 35.8128 43.0156 36.3426 42.625 36.7333L36.7333 42.625C36.5398 42.8187 36.3101 42.9724 36.0572 43.0772C35.8043 43.182 35.5332 43.236 35.2594 43.236C34.9856 43.236 34.7145 43.182 34.4616 43.0772C34.2087 42.9724 33.9789 42.8187 33.7854 42.625L28.6542 37.4937C25.9036 38.8724 22.8684 39.588 19.7917 39.5833C14.5426 39.5833 9.5085 37.4981 5.79684 33.7865C2.08519 30.0748 0 25.0407 0 19.7917C0 14.5426 2.08519 9.5085 5.79684 5.79684C9.5085 2.08519 14.5426 7.82173e-08 19.7917 0ZM30.8396 27.8917L27.8937 30.8375L35.2604 38.2021L38.2063 35.2562L30.8396 27.8917ZM34.7229 15.1729L15.1729 34.7229C16.6691 35.184 18.226 35.4178 19.7917 35.4167C21.745 35.4193 23.6814 35.0546 25.5 34.3417L23.475 32.3125C23.0844 31.9218 22.865 31.392 22.865 30.8396C22.865 30.2872 23.0844 29.7573 23.475 29.3667L29.3667 23.475C29.7573 23.0844 30.2872 22.865 30.8396 22.865C31.392 22.865 31.9218 23.0844 32.3125 23.475L34.3417 25.5C35.0546 23.6814 35.4193 21.745 35.4167 19.7917C35.4167 18.1833 35.1729 16.6333 34.7229 15.1729ZM19.7917 4.16667C16.4327 4.16631 13.163 5.24843 10.4674 7.25258C7.77175 9.25673 5.79376 12.0762 4.82665 15.293C3.85954 18.5097 3.9548 21.9525 5.09831 25.1109C6.24182 28.2693 8.37269 30.9751 11.175 32.8271L32.8271 11.175C31.4037 9.01955 29.4678 7.25098 27.1927 6.02784C24.9177 4.80469 22.3747 4.16519 19.7917 4.16667Z" fill="black"/>
</svg>
